<svg width="822" height="440" xmlns="http://www.w3.org/2000/svg">
 <style type="text/css">.st0{fill:#C59835;}
	.st1{fill:#B1B3B2;}
	.st2{fill:#FEFEFD;}</style>

 <g>
  <title>background</title>
  <rect fill="none" id="canvas_background" height="442" width="824" y="-1" x="-1"/>
 </g>
 <g>
  <title>Layer 1</title>
  <g id="svg_1">
   <path id="svg_2" d="m13.893433,136.231445c10.029053,0 20.058105,0 30.087158,-0.019958c1.578125,0 3.196533,-0.199829 3.036621,2.277466c-0.079834,1.418457 -0.539307,2.077759 -2.017822,2.037781c-1.338379,-0.039917 -2.677002,-0.019958 -3.975586,0.479492c-2.017822,0.779175 -3.196533,1.977844 -3.176514,4.355225c0.059814,9.409805 -0.02002,18.819534 -0.02002,28.229202c0,0.759155 -0.31958,1.817978 0.619385,2.217636c0.918945,0.399536 1.458252,-0.519531 2.037842,-1.058823c9.749268,-9.309937 19.478516,-18.639709 29.208008,-27.989517c0.898926,-0.85907 1.798096,-1.738098 2.497314,-2.737c0.819092,-1.19873 1.618164,-2.477295 -0.219727,-3.676025c-1.118896,-0.719177 -0.89917,-2.037781 -0.599365,-3.116577c0.379639,-1.378479 1.638184,-0.978943 2.617188,-0.978943c7.451653,-0.019958 14.883537,-0.059937 22.335442,0c1.19873,0 2.816895,-0.579346 3.07666,1.578308c0.239746,1.957825 -0.559326,2.657104 -2.477295,3.016663c-10.168945,1.957886 -17.740479,8.29097 -25.032707,15.103531c-6.373047,5.933594 -12.805908,11.827148 -19.358887,17.580811c-1.957764,1.718124 -2.19751,2.817001 -0.179688,4.654892c10.688232,9.809326 21.356689,19.658569 31.885246,29.647705c4.295166,4.075562 8.69043,7.85144 13.9646,10.588379c3.895752,2.017822 7.971436,3.296509 12.32666,3.576172c1.478271,0.099854 2.517334,0.219727 2.537109,2.197632c0.02002,2.097656 -1.138672,2.077637 -2.557129,2.03772c-6.49292,-0.199829 -13.005859,0.239746 -19.498779,-0.699219c-8.870117,-1.298584 -16.082268,-5.533936 -22.155754,-11.927002c-9.429688,-9.90918 -18.839355,-19.818359 -28.269043,-29.727539c-0.539551,-0.579346 -1.019043,-1.478394 -1.997803,-1.178711c-1.058838,0.31958 -0.719238,1.358521 -0.719238,2.117676c-0.02002,10.968018 0.039795,21.916016 -0.040039,32.884155c-0.02002,2.077637 0.938965,2.996704 2.657227,3.57605c1.897705,0.659302 3.835693,0.819092 5.813477,0.739136c1.658203,-0.059937 2.41748,0.499512 2.357422,2.317505c-0.039795,1.778076 -0.958984,2.017822 -2.357422,2.017822c-9.829102,-0.059937 -19.638428,-0.079956 -29.467773,-0.15979c-0.759155,0 -2.137695,0.47937 -1.977905,-1.118774c0.119873,-1.138794 -0.17981,-2.657104 1.578369,-2.956787c0.819092,-0.139893 1.658203,-0.099976 2.477295,-0.219727c2.796875,-0.399658 4.315186,-1.638306 4.295288,-4.874756c-0.099854,-23.254639 -0.040039,-46.52916 -0.02002,-69.803833c0,-5.154358 -1.138672,-6.432922 -6.233154,-6.712646c-1.018921,-0.059937 -2.057739,0.019958 -3.09668,0.039917c0.040039,-1.418396 0.040039,-2.876831 0.040039,-4.315247z" class="st0"/>
   <path id="svg_3" d="m808.146606,140.566711c-1.138916,-0.019958 -2.277588,-0.119873 -3.39624,-0.019958c-5.673828,0.519409 -7.491943,2.3974 -7.491943,8.051224c-0.02002,23.873901 0,47.767807 0,71.64183c0,1.338501 -0.02002,2.697021 -0.02002,4.035522c0,1.39856 -0.219727,2.597168 -1.778076,3.25647c-1.578125,0.679199 -2.477295,-0.02002 -3.516113,-1.018921c-6.033447,-5.873535 -12.086914,-11.727173 -18.140137,-17.580811c-12.066895,-11.667236 -24.133789,-23.314575 -36.240479,-34.961777c-4.914551,-4.734863 -9.869385,-9.40979 -14.84375,-14.084656c-0.639404,-0.599365 -1.298584,-1.658142 -2.297607,-1.238647c-1.178711,0.499451 -0.759033,1.758118 -0.759033,2.757019c-0.02002,17.880478 -0.02002,35.740952 -0.040039,53.621445c0,4.61499 1.058838,5.813721 5.693848,6.412964c1.638184,0.219849 3.276367,0.519531 4.914551,0.579346c1.658203,0.060059 2.077637,0.87915 2.097656,2.357544c0.02002,1.718018 -0.95874,2.077637 -2.377197,2.077637c-8.570801,-0.079834 -17.141357,-0.139771 -25.732178,-0.239746c-1.178711,-0.019897 -2.557129,0.319702 -2.597168,-1.69812c-0.039795,-1.778076 0.819336,-2.377319 2.397461,-2.477295c0.918945,-0.059937 1.838135,-0.219727 2.737061,-0.439453c3.915771,-0.919067 4.754883,-1.957886 4.774658,-5.953491c0,-23.274658 0,-46.529282 0,-69.803894c0,-1.758057 -0.079834,-3.516113 0.060059,-5.274231c0.119873,-1.438416 -0.898926,-3.635986 0.999023,-4.09552c2.137451,-0.519409 4.415039,-0.819092 6.532715,1.298584c16.222412,16.082474 32.624512,32.005081 48.946533,47.98761c6.253418,6.113403 12.466553,12.246704 18.739746,18.339966c0.838867,0.799194 1.558105,2.417358 2.896729,1.838013c1.098877,-0.49939 0.499512,-2.057739 0.499512,-3.136597c0.02002,-17.780518 -0.159912,-35.581161 0.079834,-53.36174c0.099854,-6.732681 -2.277344,-7.571732 -8.170898,-8.850357c-0.89917,-0.199768 -1.858154,-0.139832 -2.7771,-0.099854c-1.658203,0.099854 -2.737061,-0.119873 -2.697021,-2.257568c0.039795,-2.057739 1.238525,-2.017761 2.656982,-2.017761c9.609619,0.019958 19.239014,0 28.848633,0.019958c0,1.438416 0,2.896851 0,4.335266z" class="st0"/>
   <path id="svg_4" d="m623.847778,418.563293c-12.64624,-18.519775 -29.268066,-32.764282 -48.047607,-44.691162c-11.247803,-7.132202 -22.85498,-13.525269 -35.101807,-18.799561c-0.519287,-0.219727 -1.238525,-0.299683 -1.478271,-1.418457c3.695801,1.37854 7.291992,2.497314 10.688232,4.035645c13.245605,6.013428 26.271484,12.386475 38.318359,20.657471c12.226563,8.390747 23.53418,17.780518 32.544434,29.627686c2.457275,3.23645 5.174316,6.432861 6.153076,10.568359c-0.419434,0 -0.819092,0 -1.238525,0c-0.419434,-0.958862 -0.819092,-0.779053 -1.238525,0c-0.179932,0.02002 -0.379639,0.02002 -0.599365,0.02002z" class="st1"/>
   <path id="svg_5" d="m197.572876,418.563293c1.85791,-5.593872 5.653809,-9.969116 9.27002,-14.424194c7.951172,-9.769409 17.720459,-17.540894 27.949463,-24.753052c14.763916,-10.388672 30.866211,-18.220093 47.687988,-24.653076c0.619141,-0.239746 1.238525,-0.859131 2.217529,-0.319702c-2.41748,1.778076 -5.214355,2.557251 -7.751465,3.795898c-19.598633,9.429688 -37.998535,20.697388 -54.240967,35.301514c-7.312012,6.572754 -13.724854,13.884888 -19.638428,21.696289c-0.739258,0.958984 -1.55835,1.977905 -1.158936,3.356323c-0.619141,0 -1.238525,0 -1.85791,0c-0.139893,-0.139771 -0.299561,-0.279663 -0.439453,-0.419556c-0.060059,0.139893 -0.119873,0.279785 -0.179932,0.419556c-0.619141,0 -1.238525,0 -1.85791,0z" class="st1"/>
   <path id="svg_6" d="m390.542358,21.436707c-0.159912,1.038879 0.739258,0.998901 1.338623,1.358521c8.250977,4.95459 14.743896,11.467468 18.179932,20.697449c0.499512,1.318542 0.419678,2.497253 -0.479248,3.456169c-0.979004,1.038887 -2.217773,0.339668 -3.176758,-0.079895c-5.354004,-2.317436 -9.389648,-6.293144 -13.025635,-10.688347c-1.897949,-2.297485 -3.635986,-4.714844 -5.054443,-7.391907c-1.258789,-2.3974 -1.87793,-4.734863 -0.859131,-7.35199c0.998779,0 2.037842,0 3.07666,0z" class="st1"/>
   <path id="svg_7" d="m437.071655,21.436707c2.896729,3.676025 0.619141,6.972412 -1.19873,9.869263c-3.516357,5.593872 -8.03125,10.428589 -13.645264,14.044678c-1.917725,1.238647 -4.275146,3.276367 -6.393066,1.478325c-2.277344,-1.937859 -0.159668,-4.47509 0.799316,-6.432915c3.276367,-6.572876 8.390869,-11.567383 14.164551,-15.982605c1.738037,-1.338501 4.115479,-1.338501 5.653809,-2.976746c0.219727,0 0.419434,0 0.619385,0z" class="st1"/>
   <path id="svg_8" d="m624.466919,418.563293c0.419678,-0.779175 0.819336,-0.958984 1.23877,0c-0.399414,0 -0.819092,0 -1.23877,0z" class="st2"/>
   <path id="svg_9" d="m199.430786,418.563293c0.060059,-0.139771 0.120117,-0.279663 0.179932,-0.419556c0.139893,0.139893 0.299561,0.279785 0.439453,0.419556c-0.219727,0 -0.419434,0 -0.619385,0z" class="st2"/>
   <path id="svg_10" d="m173.998657,336.692688c-42.094009,0 -84.168221,0.02002 -126.262207,-0.039917c-2.677002,0 -4.235352,0.719116 -5.593994,3.23645c-2.856689,5.314209 -7.491699,9.269897 -11.627197,13.565186c-1.058838,1.098755 -2.057861,0.619263 -2.956787,-0.259766c-4.7948,-4.734863 -8.890259,-10.009033 -12.286621,-15.802734c-1.71814,-2.936768 1.058838,-7.371948 4.834717,-7.511841c6.393066,-0.239746 12.825928,-0.079834 19.239014,-0.059814c1.058838,0 2.217529,0.379517 2.697021,1.298584c1.478516,2.736938 3.915771,2.477295 6.413086,2.477295c83.349106,-0.02002 166.677979,-0.02002 250.0271,-0.02002c5.174316,0 10.089111,0.759155 13.884766,4.754761c0.859131,0.899048 1.758057,0.819092 2.816895,0.379639c10.668457,-4.515137 21.876221,-6.033447 33.32373,-5.094482c10.748291,0.879028 20.67749,4.575073 29.687744,10.568481c12.825928,8.510742 22.055908,20.038208 28.348877,33.98291c1.358643,2.996704 2.197754,6.193237 3.336426,9.289917c0.259766,0.739136 0.379639,1.817993 1.378418,1.838013c1.21875,0.039917 0.918945,-1.178833 1.118896,-1.878052c3.935547,-13.605103 11.047852,-25.252441 21.556396,-34.762085c11.367676,-10.288696 24.573242,-16.901489 39.796631,-19.159058c9.769287,-1.438354 19.318848,-0.899048 28.448975,3.296387c0.479492,0.219849 1.038818,0.319702 1.398438,0.659302c3.41626,3.23645 6.312988,2.257568 9.709473,-0.419556c4.155273,-3.25647 9.429688,-3.436157 14.50415,-3.456177c49.845459,-0.059937 99.691162,-0.02002 149.516846,-0.040039c32.564453,0 65.148926,-0.019897 97.713379,0.02002c1.718018,0 3.136475,-0.059937 4.255127,-1.738037c1.098877,-1.638306 2.996826,-2.057739 4.934814,-2.057739c5.57373,0 11.167725,-0.059937 16.741699,0.019897c5.054443,0.059937 7.69165,4.894653 4.874512,9.150024c-3.535889,5.354126 -7.771484,10.148926 -12.42627,14.584106c-1.318604,1.238647 -2.017822,0.759155 -3.036865,-0.259766c-4.375,-4.415161 -7.991211,-9.429688 -11.427246,-14.584106c-0.999023,-1.498291 -2.017822,-2.0177 -3.756104,-2.0177c-83.348877,0.039917 -166.677979,0.039917 -250.0271,0.039917c-4.255371,0 -8.091064,1.278564 -11.647217,3.556152c-1.138916,0.739136 -1.937988,1.55835 -0.319824,2.497314c6.672852,3.855713 8.990234,10.38855 9.929443,17.301025c0.818787,5.993408 0.61908,12.146729 -1.498535,18.040283c-1.278564,3.576172 -3.07666,6.712769 -5.83374,9.349854c-3.71582,3.57605 -10.088867,3.715942 -13.704834,0.119873c-4.515137,-4.495117 -6.572998,-10.06897 -7.412109,-16.282227c-0.838867,-6.253174 -0.299561,-12.266602 1.878174,-18.200195c1.398438,-3.795776 3.555908,-6.99231 6.672607,-9.509644c1.398438,-1.118652 1.798096,-1.777954 -0.079834,-2.816895c-4.774902,-2.637085 -9.809326,-4.395142 -15.243408,-4.694824c-26.251465,-1.398438 -46.589111,9.72937 -62.032471,30.207031c-7.311768,9.689453 -11.127686,21.01709 -12.446289,33.183838c-0.359619,3.296387 -0.419434,6.572754 -0.499512,9.869141c-0.02002,1.178711 0.3396,2.876831 -1.438477,2.896851c-1.87793,0.02002 -1.777832,-1.71814 -1.718018,-3.036621c0.399658,-8.270996 -1.19873,-16.22229 -3.895752,-23.993896c-5.27417,-15.143433 -14.084717,-27.709717 -27.17041,-37.05957c-10.068848,-7.192139 -21.256836,-11.087891 -33.703125,-11.667236c-8.93042,-0.419556 -17.421143,1.19873 -25.771973,3.995605c-1.258545,0.419556 -2.737061,0.979004 -0.599365,2.257568c6.612793,3.915771 8.630615,10.468628 9.849365,17.381104c1.318604,7.511719 0.159912,14.703857 -3.236572,21.576416c-2.976563,6.013428 -8.830322,9.429688 -13.924805,7.671631c-3.595947,-1.238647 -5.93335,-4.035645 -7.771484,-7.212158c-6.013428,-10.408569 -5.314209,-27.869629 2.797119,-36.660034c0.858887,-0.938965 1.738037,-1.718018 2.876709,-2.217529c2.377441,-1.038818 1.977783,-2.257568 0.279785,-3.576172c-2.797119,-2.177612 -6.013428,-2.976685 -9.549561,-2.976685c-41.974365,0 -83.968506,0 -125.942627,0z" class="st1"/>
   <path id="svg_11" d="m595.558472,114.654968c32.4646,0 64.929199,-0.019958 97.413818,0.039978c1.977783,0 3.256348,-0.539429 4.335205,-2.237549c1.837891,-2.876907 4.375244,-5.194351 6.752686,-7.651672c1.478271,-1.518372 2.697021,-1.518372 4.195313,-0.199768c3.196533,2.796921 6.293213,5.693771 8.690674,9.209961c1.618164,2.357422 0.579346,5.314209 -2.237793,5.753723c-5.314209,0.83905 -11.347412,1.857971 -15.902588,-0.139893c-5.573975,-2.417358 -10.828125,-1.817993 -16.202148,-1.817993c-59.874756,-0.119873 -119.749512,-0.059937 -179.624023,-0.099854c-5.533936,0 -10.948242,-0.579407 -15.223389,-4.754822c-0.779297,-0.759216 -1.478516,-0.719238 -2.457275,-0.099915c-11.587402,7.371948 -23.814209,6.592773 -36.000732,2.157654c-14.164551,-5.154373 -25.272461,-14.164551 -32.4646,-27.649841c-1.758057,-3.276428 -3.09668,-6.732666 -4.315186,-10.24884c-0.319824,-0.918945 -0.040039,-2.497253 -1.298584,-2.517212c-1.438477,-0.019958 -1.23877,1.69812 -1.55835,2.677063c-3.116699,9.72937 -8.331055,18.320007 -15.702881,25.232483c-15.203369,14.264404 -32.924072,19.019226 -53.14209,12.426453c-2.996582,-0.978943 -5.59375,-2.177673 -8.67041,0.699219c-2.037842,1.897949 -5.494141,2.077759 -8.550781,2.077759c-64.629395,0 -129.259033,0 -193.888443,-0.02002c-1.758057,0 -3.496094,-0.199768 -4.774658,1.458435c-0.3396,0.439514 -1.058838,0.819092 -1.618408,0.83905c-5.25415,0.199768 -10.568352,0.659302 -15.762688,-0.17981c-3.696045,-0.599304 -4.355225,-3.296387 -2.117676,-6.373047c2.257568,-3.096634 4.754883,-5.953506 7.511719,-8.610596c1.378418,-1.318542 2.676994,-1.398438 4.035637,-0.039978c2.75708,2.776962 5.933594,5.154404 8.131104,8.470764c0.938965,1.438416 1.997803,2.237549 3.855713,1.678223c0.958984,-0.279724 2.057861,-0.079956 3.09668,-0.079956c64.429703,0 128.839371,0 193.269058,0c2.077881,0 4.115479,0.019958 5.953613,-1.258606c1.478271,-1.018921 2.057617,-1.778076 0.239746,-3.196548c-8.450684,-6.672653 -8.810303,-24.053696 -2.976807,-32.304733c4.61499,-6.532837 11.727295,-6.053345 15.522949,1.058899c5.474121,10.268799 4.135742,22.135803 -3.516113,31.046066c-0.998779,1.158768 -1.178711,1.758072 0.55957,2.337479c11.927002,3.895752 23.674072,4.075562 35.30127,-1.118774c18.919434,-8.470764 28.988525,-23.694153 33.083984,-43.412659c0.599365,-2.916809 0.539551,-5.953491 0.839111,-8.930237c0.099854,-0.919006 -0.499512,-2.497253 0.979004,-2.477295c1.478271,0 1.398438,1.618225 1.338379,2.677063c-0.31958,5.63385 0.55957,11.087952 2.017822,16.482056c5.673828,20.897156 26.131592,38.298157 47.987793,39.736572c6.053223,0.399597 11.946777,-0.039917 17.600586,-2.297485c2.017822,-0.799133 3.156738,-1.538269 0.938965,-4.035599c-5.434082,-6.093307 -6.452881,-13.625107 -5.314209,-21.496506c0.55957,-3.815857 1.87793,-7.391907 4.155518,-10.568481c3.755859,-5.194336 9.649658,-5.454041 13.485352,-0.379578c4.315186,5.733765 5.454102,12.386475 4.554932,19.378845c-0.699219,5.533997 -2.437256,10.66832 -6.972168,14.42424c-1.278809,1.058853 -0.779297,1.957901 0.479248,2.617203c2.637207,1.378479 5.454102,1.69812 8.410889,1.69812c31.865234,0 63.710449,0.019958 95.555664,0.019958z" class="st1"/>
   <path id="svg_12" d="m142.053589,136.31134c8.850342,-0.079895 17.720703,-1.69812 26.531006,0.439514c21.356689,5.174377 22.375488,26.371292 12.626221,38.497986c-2.597168,3.23645 -5.573975,6.053345 -8.890381,8.550659c-1.278564,0.958984 -1.85791,1.69812 -0.439453,3.156616c7.072266,7.192139 13.225586,15.223389 20.617432,22.115845c5.653809,5.27417 11.627441,10.088989 19.019287,12.82605c1.618164,0.599243 3.216553,0.639282 4.834717,0.799072c1.318604,0.139893 1.698242,0.938965 1.698242,2.117676c0.02002,1.158691 -0.699219,1.398438 -1.598389,1.37854c-7.232178,-0.159912 -14.484131,0.559326 -21.65625,-0.619385c-7.152344,-1.178711 -12.826172,-4.814697 -17.26123,-10.528442c-6.073486,-7.811523 -12.446289,-15.363281 -18.140137,-23.474487c-1.258789,-1.797974 -2.916992,-2.776978 -5.234375,-2.697021c-3.41626,0.119873 -6.83252,0.059937 -10.22876,0.040039c-2.377441,-0.02002 -3.616226,0.859009 -3.576187,3.476196c0.099854,8.071167 0.159912,16.122314 -0.02002,24.193481c-0.059814,2.617188 1.118912,3.795898 3.316422,4.375244c2.497314,0.659302 5.034424,1.138794 7.631592,1.058838c1.638428,-0.039917 2.7771,0.339722 2.7771,2.377441c0,2.197632 -1.478516,1.817993 -2.7771,1.817993c-10.009033,0.079956 -20.038101,0.159912 -30.047134,0.17981c-1.118652,0 -2.597168,0.279663 -2.737061,-1.658203c-0.119873,-1.738037 0.419678,-2.637085 2.297607,-2.876831c3.176514,-0.419556 4.29541,-2.257568 4.275391,-5.573853c-0.119873,-23.054932 -0.060059,-46.109726 -0.040039,-69.164551c0,-4.77478 -0.819092,-5.913574 -5.493896,-6.49292c-1.858154,-0.239746 -2.217773,-1.078857 -2.177734,-2.577209c0.040039,-1.87793 1.398438,-1.738098 2.656982,-1.738098c7.352051,0 14.684082,0 22.036148,0zm-1.658218,25.672012c0,5.473999 0.139893,10.94812 -0.060059,16.422104c-0.119873,3.096558 1.178726,4.515015 4.055679,5.09436c3.995605,0.819092 8.01123,0.938965 12.006836,0.559448c3.795898,-0.359619 7.032471,-1.957886 9.56958,-5.014526c6.033447,-7.272079 6.113281,-15.46312 3.775879,-23.973862c-1.578369,-5.753723 -4.894775,-10.248795 -10.648438,-12.38649c-5.27417,-1.957886 -10.808105,-1.078796 -16.242188,-0.779114c-1.837891,0.099854 -2.517349,1.718079 -2.49733,3.675964c0.099854,5.454056 0.040039,10.928055 0.040039,16.402115z" class="st0"/>
   <path id="svg_13" d="m436.452271,194.347961c-4.235596,0 -8.470703,0.040039 -12.726074,-0.019897c-2.856934,-0.040039 -4.715088,1.298584 -5.673828,3.875732c-1.698242,4.535034 -3.436279,9.070068 -4.934814,13.685059c-1.398438,4.275391 -0.379395,7.411987 2.577393,8.870361c0.718994,0.359619 1.578125,0.639282 2.357422,0.599365c2.457275,-0.119873 2.17749,1.558228 2.257324,3.116577c0.080078,1.937866 -1.278564,1.758057 -2.51709,1.778076c-7.851563,0.059937 -15.702881,0.119873 -23.574219,0.099854c-0.919189,0 -2.317627,0.17981 -2.217773,-1.438477c0.080078,-1.238647 -0.539307,-3.096558 1.258789,-3.41626c7.13208,-1.218628 10.049072,-6.612793 12.686035,-12.346558c10.408691,-22.675171 20.817383,-45.350449 31.226074,-68.025696c0.679199,-1.498352 1.318604,-3.036682 2.017822,-4.515076c0.559326,-1.198669 1.018799,-2.517273 2.83667,-2.317444c1.638428,0.17981 2.577148,0.998901 3.196533,2.477295c2.337646,5.494019 4.754883,10.947998 7.152344,16.422073c7.931152,18.140259 15.882568,36.260361 23.793945,54.40062c1.078857,2.457275 2.19751,4.894653 3.09668,7.431885c1.478516,4.135498 4.694824,5.753662 8.69043,6.373047c0.819092,0.119873 1.618164,0.3396 2.41748,0.499512c1.418457,0.259644 1.758057,1.198608 1.677979,2.497192c-0.099854,1.518311 -0.95874,1.817993 -2.277344,1.817993c-8.690674,-0.019897 -17.381104,0.02002 -26.051514,-0.019897c-2.237793,0 -3.396484,-2.017822 -1.798096,-3.636108c2.796875,-2.816895 1.897949,-5.533936 0.679199,-8.51062c-2.097656,-5.154419 -4.155518,-10.328735 -6.193115,-15.503174c-1.318604,-3.356323 -4.175537,-4.095459 -7.272217,-4.195435c-4.195313,-0.119751 -8.450684,-0.019897 -12.686035,0l0,0zm1.53833,-40.19603c-0.559326,0.85907 -1.039063,1.398438 -1.338623,2.03772c-4.29541,9.22998 -8.630615,18.439941 -12.805908,27.709824c-1.338623,2.956665 -0.139893,4.475098 3.556152,4.535034c7.112061,0.099854 14.244385,0.059937 21.356689,-0.040039c3.156494,-0.039917 3.855713,-1.178711 2.636963,-4.115479c-1.997803,-4.734863 -4.035645,-9.449692 -6.173096,-14.144516c-2.377441,-5.234253 -4.255371,-10.688354 -7.232178,-15.982544z" class="st0"/>
   <path id="svg_14" d="m643.546265,194.328064c-4.235352,0 -8.470703,0.019897 -12.726318,0c-2.936523,-0.02002 -4.854492,1.298584 -5.853516,4.095459c-1.598145,4.575073 -3.376221,9.110107 -4.93457,13.705078c-1.738037,5.154419 0.159912,8.310913 5.533936,9.22998c1.818115,0.31958 1.658203,1.458374 1.738281,2.697021c0.099854,1.578247 -0.519531,2.217529 -2.137695,2.197632c-8.171143,-0.059937 -16.322266,-0.040039 -24.493408,-0.059937c-0.898926,0 -1.698242,-0.139893 -1.618164,-1.318604c0.079834,-1.278564 -0.399658,-3.056641 1.358398,-3.376343c7.032471,-1.358521 9.849365,-6.692627 12.466553,-12.486328c10.668213,-23.474365 21.436523,-46.868881 32.184814,-70.303284c0.379639,-0.83905 0.839111,-1.658203 1.21875,-2.497253c0.479492,-1.058838 0.998779,-1.957886 2.457275,-1.877991c1.478271,0.079956 2.517334,0.51947 3.136475,1.977844c2.237549,5.214294 4.594971,10.368713 6.872559,15.563065c4.375244,10.009094 8.710449,20.018127 13.065674,30.027267c4.61499,10.588379 9.389893,21.116943 13.784912,31.805176c1.937988,4.694946 4.854736,7.391968 9.969238,7.87146c1.518311,0.139893 3.73584,0 3.336426,2.876831c-0.179932,1.318604 -0.55957,1.778076 -1.858154,1.778076c-8.890137,-0.02002 -17.780518,0.039917 -26.670898,0c-1.897949,0 -2.796875,-2.237549 -1.238525,-3.775879c2.437256,-2.417358 1.798096,-4.814697 0.799072,-7.391968c-2.077637,-5.294189 -4.215332,-10.548462 -6.273193,-15.842651c-1.218506,-3.136597 -3.456055,-4.77478 -6.83252,-4.7948c-4.455078,-0.02002 -8.890137,0 -13.345459,0c0.060059,-0.039917 0.060059,-0.079956 0.060059,-0.099854zm1.338623,-5.933594l0,0c3.39624,0.02002 6.8125,0.060059 10.20874,0c3.835693,-0.059937 4.554932,-1.038818 3.09668,-4.475098c-3.995605,-9.369736 -8.091309,-18.719467 -12.166748,-28.069321c-0.239746,-0.539429 -0.359619,-1.358521 -1.078857,-1.358521c-0.87915,-0.019958 -1.018799,0.919006 -1.278564,1.518372c-1.818115,3.91571 -3.536133,7.891418 -5.354248,11.807068c-2.377197,5.134399 -4.854736,10.228867 -7.172119,15.383163c-1.598145,3.556152 -0.639404,5.074585 3.216553,5.154419c3.496094,0.119873 7.012207,0.039917 10.528564,0.039917z" class="st0"/>
   <path id="svg_15" d="m371.742798,181.182434c0,10.748169 0,21.516479 0,32.264771c0,6.572754 1.178711,7.891357 7.651611,8.550659c0.519531,0.059937 1.039063,0.019897 1.53833,0.139771c1.338623,0.319702 1.278564,1.418457 1.318604,2.457397c0.040039,1.218628 -0.599365,1.618164 -1.738037,1.618164c-10.328857,0.02002 -20.67749,0.040039 -31.006104,0.099976c-1.618408,0 -2.137695,-0.859131 -2.157715,-2.337524c-0.02002,-1.53833 0.898926,-1.778076 2.17749,-1.977783c6.832764,-1.058838 7.232178,-1.858032 7.212158,-8.870361c-0.079834,-21.196899 -0.039795,-42.393661 0.119873,-63.590561c0.060059,-7.072342 -0.239746,-7.671646 -7.172119,-7.671646c-4.754883,0 -9.509521,0.17981 -14.264404,0.279663c-4.834717,0.099915 -7.072266,3.75592 -9.509521,7.072342c-0.779297,1.058838 -1.438477,1.997803 -2.937012,1.798035c-1.957764,-0.239746 -3.296387,-0.69928 -2.437256,-3.236465c1.098877,-3.216553 1.997803,-6.512939 2.737061,-9.829285c0.419434,-1.877991 1.118652,-2.497314 3.09668,-2.357422c20.038086,1.358459 40.096191,0.359558 60.134277,0.679199c5.793701,0.079956 11.587402,-0.039917 17.341064,-0.739136c1.997803,-0.239746 2.836914,0.219727 2.75708,2.37738c-0.119873,3.91571 -0.040039,7.85144 -0.02002,11.787125c0,1.238647 -0.499512,1.937927 -1.818115,1.977844c-1.038818,0.02002 -2.077637,0.199829 -2.457275,-1.218689c-1.638184,-6.273148 -6.552734,-7.791458 -12.106689,-7.991287c-4.95459,-0.199768 -9.929199,0 -14.883789,-0.019958c-2.517334,0 -3.716064,0.939026 -3.696045,3.695984c0.159912,11.667252 0.099854,23.354568 0.119873,35.041809c-0.02002,0 0,0 0,0z" class="st0"/>
   <path id="svg_16" d="m293.268433,134.413452c6.512939,-0.439514 12.146729,1.01886 17.840576,1.937866c2.097656,0.3396 3.256348,1.218689 2.976807,3.675964c-0.379639,3.476196 -0.419678,7.012329 -0.599365,10.50856c-0.040039,0.978943 -0.179932,1.977844 -1.358643,2.097717c-1.19873,0.139832 -2.51709,0.379578 -3.336182,-0.938965c-0.100098,-0.159851 -0.139893,-0.379578 -0.179932,-0.579407c-3.595947,-13.245499 -14.544189,-13.325455 -25.152588,-10.488541c-2.537109,0.67926 -4.355225,2.737 -5.414063,5.174377c-2.677002,6.113297 -1.298584,12.726089 3.676025,17.241165c4.734863,4.295288 10.128906,7.731567 15.363281,11.387573c4.974609,3.496201 9.789307,7.152206 13.625,11.986923c10.089111,12.726074 4.455322,32.564453 -10.668213,38.677734c-12.226807,4.95459 -24.133789,4.095581 -36.200439,-0.219727c-1.298584,-0.459473 -1.87793,-1.098755 -1.738281,-2.457275c0.499512,-4.814819 0.979004,-9.649536 1.498535,-14.464233c0.159668,-1.53833 1.178711,-2.017822 2.636963,-1.957886c1.478546,0.059937 2.337433,0.719238 2.437531,2.217529c0.059814,0.919067 0.039795,1.858032 0.119873,2.796997c0.459442,6.193237 4.514862,10.768311 11.10788,11.647339c4.674805,0.619263 9.209717,0.699219 13.724854,-0.899048c10.348877,-3.636108 11.647461,-16.501953 6.333008,-23.034912c-4.415039,-5.434082 -10.108887,-9.269897 -15.443115,-13.565186c-4.554932,-3.676025 -9.369629,-7.012329 -13.545166,-11.167831c-7.991211,-7.951294 -9.929199,-23.773987 0.159912,-32.804153c4.754639,-4.255371 10.648438,-6.173279 16.941406,-6.772583c1.937988,-0.159851 3.915771,0 5.194336,0z" class="st0"/>
   <path id="svg_17" d="m504.917603,181.522034c0,-11.267685 0.02002,-22.535385 0,-33.82312c0,-5.374084 -1.498535,-6.952393 -6.912598,-7.192139c-1.458252,-0.059937 -2.636963,-0.059937 -2.597168,-2.077698c0.040039,-1.55835 0.479492,-2.257568 2.117676,-2.23761c9.409912,0.059937 18.81958,0.059937 28.229248,0.039978c1.458496,0 2.377441,0.379578 2.377441,2.077698c0,1.55835 -0.619385,2.077759 -2.19751,2.23761c-5.374268,0.519409 -6.293213,1.69812 -6.293213,7.092224c0.02002,22.435562 0,44.890991 0,67.326538c0,4.694946 0.3396,4.974609 5.114197,5.234253c5.174622,0.299683 10.328918,0.159912 15.503235,-0.079834c6.17334,-0.279663 10.888184,-2.856934 13.505371,-8.650635c0.739258,-1.658203 1.53833,-3.016602 3.656006,-2.277466c2.037598,0.719238 1.198486,2.437378 1.038818,3.715942c-0.479492,3.775879 -1.23877,7.531738 -1.758057,11.307617c-0.279785,2.017822 -1.53833,2.037842 -3.116699,2.037842c-16.641846,-0.040039 -33.303711,-0.040039 -49.945313,-0.040039c-1.538574,0 -3.09668,0.079956 -4.63501,0.139893c-1.178711,0.059937 -2.037842,-0.259766 -2.077881,-1.658203c-0.02002,-1.19873 0.080078,-2.337402 1.55835,-2.597168c0.599365,-0.119873 1.23877,-0.119873 1.838135,-0.219727c3.575928,-0.679321 4.594971,-1.917969 4.61499,-5.613892c-0.02002,-11.587402 -0.02002,-23.154663 -0.02002,-34.742065l0,0z" class="st0"/>
   <path id="svg_18" d="m579.476196,136.251404c4.554932,0 9.090088,0 13.64502,0c1.278564,0 2.517334,-0.019958 2.637207,1.798096c0.099854,1.678162 -0.519531,2.277466 -2.237793,2.53717c-4.794678,0.719238 -6.292969,2.657104 -6.292969,7.531815c0,22.635254 0,45.270615 0,67.905869c0,4.295288 1.118652,5.494019 5.513916,5.953491c1.019043,0.099976 2.137695,-0.019897 2.976807,0.639282c0.839111,0.659302 0.579346,1.698242 0.499512,2.597168c-0.119873,1.19873 -1.118896,0.999023 -1.917969,0.999023c-9.389648,0.079834 -18.779541,0.139771 -28.189209,0.239624c-1.578369,0.02002 -2.477295,-0.419434 -2.497314,-2.277466c-0.02002,-1.917847 0.979004,-2.137695 2.517334,-2.197632c1.318359,-0.039917 2.656982,-0.3396 3.935547,-0.719238c1.638428,-0.47937 2.4375,-1.518311 2.4375,-3.41626c-0.060059,-23.774048 -0.02002,-47.54808 -0.040039,-71.302124c0,-3.596069 -2.097656,-5.47406 -6.552734,-5.953552c-1.678223,-0.179749 -2.976807,-0.139832 -2.856934,-2.497253c0.119873,-2.477295 1.797852,-1.817993 3.07666,-1.838013c4.435059,-0.079895 8.890137,-0.019958 13.325439,-0.019958c0.02002,0 0.02002,0 0.02002,0.019958z" class="st0"/>
   <path id="svg_19" d="m238.828003,226.213196c-4.655029,0 -9.310059,0 -13.944824,0c-1.258789,0 -2.4375,0.139893 -2.397461,-1.837891c0.040039,-1.818115 0.819092,-2.337524 2.437256,-2.357544c1.019043,-0.019897 2.057861,-0.119751 3.07666,-0.3396c2.497314,-0.519409 3.756104,-1.797974 3.756104,-4.674927c-0.100098,-22.934937 -0.02002,-45.889877 -0.040039,-68.844772c0,-4.974625 -2.017822,-7.27211 -6.912598,-7.591751c-1.797852,-0.119873 -2.537109,-0.539429 -2.49707,-2.477295c0.039795,-2.197632 1.438232,-1.838013 2.736816,-1.838013c9.090088,-0.019958 18.180176,-0.019958 27.290283,-0.039917c1.398438,0 2.357422,0.15979 2.357422,1.977844c0,1.69812 -0.479492,2.257507 -2.237549,2.417358c-4.395264,0.419495 -6.013428,2.457275 -6.013428,6.992371c0,22.735245 0,45.470337 0,68.225464c0,4.854736 0.839111,5.733765 5.873535,6.193237c1.078857,0.099976 2.477295,-0.299561 2.836914,1.21875c0.439453,1.85791 0.080078,3.216431 -2.357422,3.156494c-4.654785,-0.079834 -9.289795,-0.019897 -13.944824,-0.019897c-0.019775,-0.079956 -0.019775,-0.119873 -0.019775,-0.159912z" class="st0"/>
   <path id="svg_20" d="m567.609009,354.573181c6.333252,1.618286 12.506348,3.516235 18.779541,5.054443c11.547363,2.816895 23.134766,4.115479 34.722168,0.479492c5.094238,-1.598267 9.729248,-4.455078 15.123535,-5.294189c8.01123,-1.258667 16.002441,2.956787 18.659424,9.989136c3.596191,9.589478 -2.597168,18.699585 -12.885742,18.919312c-6.17334,0.119873 -11.987061,-1.758057 -17.800781,-3.456177c-19.378662,-5.693848 -37.479004,-14.304443 -54.919922,-24.393433c-0.599365,-0.359619 -1.118652,-0.859131 -1.678223,-1.298584z" class="st1"/>
   <path id="svg_21" d="m256.788208,354.153625c-7.851318,5.773682 -16.421875,10.029053 -25.092529,14.044678c-12.626221,5.853638 -25.531982,11.047974 -39.197266,14.084595c-4.61499,1.018921 -9.050049,1.897949 -13.9646,0.639282c-9.449707,-2.437256 -13.185791,-13.205566 -6.952393,-21.696289c4.774658,-6.49292 13.405273,-8.270996 22.455322,-4.95459c4.814697,1.758057 9.22998,4.495117 14.464355,5.214355c8.67041,1.178711 17.260986,0.938965 25.791748,-0.979004c7.232178,-1.618164 14.464355,-3.25647 21.316895,-6.213257c0.359375,-0.15979 0.779053,-0.099854 1.178467,-0.139771z" class="st1"/>
   <path id="svg_22" d="m439.548706,294.358826c0.040039,1.71814 0.100098,3.436279 0.139893,5.154419c-0.139893,0.199829 -0.399414,0.419556 -0.379639,0.579346c0.100098,0.419556 0.479736,0.439575 0.839111,0.359619c0.259766,0.119873 0.519531,0.239746 0.799316,0.359619c0.299561,0.998901 2.037842,0.839111 1.817871,2.257568c-3.595947,0.599365 -7.212158,-0.479492 -10.808105,0.15979c-0.579346,0.099854 -1.278564,-0.099976 -1.458496,-0.859009c-0.159912,-0.599365 0.259766,-1.03894 0.719238,-1.21875c1.937988,-0.759155 1.638184,-2.397339 1.638184,-3.915771c0,-8.67041 -0.02002,-17.360962 0.02002,-26.031494c0,-1.738159 0.079834,-3.356323 -2.157715,-3.795898c-0.519287,-0.099854 -1.018799,-0.599365 -0.718994,-1.118774c0.199707,-0.379517 0.818848,-0.739136 1.258545,-0.739136c6.712646,0.15979 13.445313,-0.87915 20.0979,0.139771c3.416504,0.519531 6.593018,2.237549 7.71167,5.893555c1.338623,4.315308 0.079834,8.131104 -2.996582,11.367554c-3.236572,3.396362 -3.216553,3.356445 0.059814,6.872559c3.07666,3.316406 6.073242,6.752686 9.869141,9.289917c6.313232,4.175415 11.247803,2.756958 14.424316,-4.075562c4.29541,-9.22998 8.550781,-18.499878 12.865967,-27.709839c0.459473,-0.958862 0.679199,-2.397339 2.037842,-2.457275c1.618164,-0.079956 1.778076,1.478394 2.257568,2.557251c4.315186,9.689331 8.610596,19.398804 12.925781,29.088257c0.979004,2.197632 2.117676,4.275269 4.894775,4.634888c0.619141,0.079956 1.298584,0.479492 1.118652,1.19873c-0.159912,0.719238 -0.938965,0.699219 -1.55835,0.699219c-3.196533,0 -6.412842,0.02002 -9.609375,-0.02002c-1.338623,-0.019897 -1.658203,-0.49939 -1.318604,-1.957764c0.979004,-4.235474 -1.518311,-7.471924 -3.615967,-10.728394c-0.479492,-0.739136 -1.658203,-0.859009 -2.577393,-0.779053c-3.096436,0.299561 -6.193115,0.139771 -9.289795,-0.079956c-1.658203,-0.119873 -2.776855,0.399536 -3.356201,2.03772c-0.619385,1.738159 -1.378662,3.436279 -1.997803,5.194336c-0.659424,1.858032 -0.599365,3.496216 1.657959,4.215454c0.639404,0.199707 1.178955,0.539429 1.059082,1.278564c-0.159912,1.03894 -1.059082,0.819092 -1.718262,0.819092c-7.072266,-0.019897 -14.144531,0.040039 -21.196777,-0.15979c-2.896973,-0.079956 -5.234375,-1.758057 -7.052246,-3.975708c-2.617188,-3.156494 -5.154541,-6.392944 -7.731689,-9.589478c-0.02002,-0.219727 -0.139893,-0.359619 -0.359619,-0.419556c-0.139893,-0.219727 -0.259766,-0.459473 -0.399414,-0.679199c-1.19873,-1.817993 0.459229,-2.557251 1.318359,-3.556152l0.31958,-0.15979c0.57959,-0.040039 1.298584,0.15979 1.258789,-0.839111c3.196533,-4.095581 3.056641,-8.510742 0.619385,-12.746094c-1.778076,-3.116577 -5.134521,-3.276489 -8.430908,-3.196533c-2.257568,0.059937 -3.09668,1.118774 -3.036621,3.296387c0.099854,3.196533 0,6.393066 0.039795,9.5896c0.02002,1.398438 -0.519287,2.896851 0.719238,4.095459c0.139893,0.119873 0.279785,0.259766 0.439453,0.379639l0.139893,0.099854c0.479492,0.479492 0.759277,0.539429 1.21875,0.15979c0.799072,0.02002 1.618408,0.040039 2.41748,0.079956c0.239746,2.437378 -1.658203,1.618286 -2.717041,1.598267c-1.897949,-0.039917 -2.677002,0.879028 -2.617188,2.537231c0.040039,1.638184 -0.499512,3.296387 0.399414,4.814697zm53.761475,-7.112183c1.23877,0 2.477295,-0.039917 3.696045,0c2.237549,0.079956 2.737061,-0.918945 1.87793,-2.856934c-1.318604,-2.996704 -2.617188,-6.013306 -3.955811,-9.010132c-0.279541,-0.639282 -0.519287,-1.458374 -1.358398,-1.498291c-0.87915,-0.040039 -1.118896,0.759155 -1.418457,1.418457c-0.918945,2.057739 -1.818115,4.115479 -2.737061,6.173218c-2.557129,5.793701 -2.557129,5.793701 3.895752,5.773682z" class="st0"/>
   <path id="svg_23" d="m512.669067,99.491577c5.214355,-7.931335 12.406494,-13.68512 20.557617,-18.28009c6.253174,-3.516174 12.925781,-6.093323 20.297852,-5.154358c5.773682,0.739197 10.688232,3.316406 13.265381,8.830383c3.596191,7.711548 -3.316406,16.741699 -9.90918,15.922607c-1.917725,-0.239746 -3.336182,-1.178711 -4.574951,-2.317505c-9.189941,-8.490723 -19.378906,-8.430786 -30.087158,-3.57605c-3.176514,1.438416 -6.233154,3.196472 -9.329834,4.794739c-0.02002,0 -0.219727,-0.219727 -0.219727,-0.219727z" class="st1"/>
   <path id="svg_24" d="m312.887085,99.691345c-4.075684,-1.71814 -7.751465,-4.255371 -11.927002,-5.833618c-9.829346,-3.695984 -18.879395,-3.236511 -27.030518,4.155457c-4.095459,3.715942 -8.091064,3.695923 -11.906982,0.439514c-4.035645,-3.436279 -5.434082,-9.649475 -3.236572,-13.705078c4.235352,-7.811462 12.966064,-10.228821 21.097168,-8.330872c13.724854,3.176514 24.133545,11.547363 32.864014,22.235718c0.179688,0.219788 0.219727,0.559387 0.31958,0.85907c0.02002,0 -0.179688,0.17981 -0.179688,0.17981z" class="st1"/>
   <path id="svg_25" d="m670.43689,304.188171c-38.138428,0 -76.296631,0 -114.435059,0c-0.419678,0 -0.839111,0.039917 -1.23877,0c-0.858887,-0.079956 -2.117676,0.299683 -2.037842,-1.158813c0.060059,-1.158691 1.158936,-0.958984 1.958008,-0.958984c2.377441,-0.019897 4.754883,-0.019897 7.13208,-0.019897c74.218994,0 148.437988,0 222.656982,0.039917c1.21875,0 3.476318,-0.938965 3.476318,1.098877c0,1.777954 -2.19751,0.938965 -3.376221,0.938965c-38.058594,0.059937 -76.096924,0.059937 -114.135498,0.059937l0,0z" class="st0"/>
   <path id="svg_26" d="m151.642944,302.070496c38.058594,0 76.116943,0 114.155518,0c0.419434,0 0.839111,-0.039917 1.23877,0c0.858917,0.079834 2.19751,-0.239746 2.137451,1.098755c-0.059814,1.238647 -1.358368,0.998901 -2.237549,1.018921c-2.697021,0.039917 -5.374023,0 -8.071045,0c-73.839355,0 -147.658943,0 -221.498291,-0.040039c-1.158691,0 -3.336426,0.899048 -3.336426,-0.938965c0,-2.057739 2.257568,-1.078735 3.456299,-1.078735c38.05835,-0.079956 76.116936,-0.079956 114.155273,-0.059937c0,-0.02002 0,0 0,0z" class="st0"/>
   <path id="svg_27" d="m391.201538,281.372986c0,-2.996704 -0.179688,-6.013428 0.060059,-8.990112c0.219727,-2.836914 -0.539551,-4.515137 -3.576172,-4.874634c-0.739258,-0.099976 -2.277588,0.039917 -2.097656,-1.21875c0.159668,-1.138794 1.498291,-0.799072 2.377441,-0.799072c2.996582,-0.040039 5.993408,-0.02002 8.98999,0c0.619385,0 1.338623,0.059937 1.478516,0.819092c0.159912,0.819092 -0.539551,1.078735 -1.138672,1.158691c-2.797119,0.399536 -3.236572,2.197632 -3.216553,4.674927c0.099854,9.389771 0.059814,18.799438 0.02002,28.209229c0,1.058838 0.479492,2.437256 -0.87915,3.036621c-1.418457,0.619385 -1.997803,-0.819092 -2.756836,-1.518311c-8.630615,-8.071167 -17.221436,-16.202271 -25.852051,-24.25354c-0.838867,-0.779175 -1.618164,-2.317383 -2.976563,-1.738037c-1.158691,0.49939 -0.699219,2.0177 -0.699219,3.096558c-0.040039,6.293091 0.039795,12.606323 -0.02002,18.899414c-0.02002,2.257446 1.038818,3.136597 3.136475,3.216431c0.799316,0.039917 1.937988,0.079956 1.958008,1.098755c0.039795,1.238647 -1.19873,0.87915 -1.917969,0.899048c-2.976807,0.059937 -5.953613,0.059937 -8.9104,0c-0.63916,-0.019897 -1.618164,0.239746 -1.677979,-0.838989c-0.040039,-0.759277 0.679199,-0.958984 1.278564,-1.098877c2.157715,-0.519409 2.497314,-2.057739 2.477295,-4.015625c-0.060059,-9.409668 -0.060059,-18.799438 -0.02002,-28.209229c0,-1.158691 -0.539307,-2.716919 0.979004,-3.296387c1.418457,-0.539429 2.377441,0.399536 3.41626,1.438477c8.550537,8.330933 17.181152,16.56189 25.791748,24.812866c0.519531,0.499512 1.078857,0.958984 1.658203,1.39856c1.418457,1.118774 2.137695,0.978882 2.097656,-1.03894c-0.059814,-3.615967 -0.019775,-7.232056 -0.019775,-10.848145c0,-0.02002 0.019775,-0.02002 0.039795,-0.02002z" class="st0"/>
   <path id="svg_28" d="m289.192993,290.483093c0,1.55835 0.099854,3.116577 -0.02002,4.654907c-0.219727,3.056763 0,5.673828 4.035645,5.713745c0.739258,0 1.098877,0.519531 1.058838,1.23877c-0.040039,0.81897 -0.659424,0.918945 -1.298584,0.998901c-4.854736,0.49939 -9.689453,-0.219849 -14.544189,-0.040039c-0.539307,0.02002 -1.058838,-0.219727 -1.058838,-0.859009c0,-0.699219 0.359619,-1.19873 1.058838,-1.318604c2.856934,-0.519409 2.976807,-2.537231 2.976807,-4.894653c-0.079834,-10.228882 -0.040039,-20.457642 -0.040039,-30.686523c0,-2.776978 0.399658,-5.813599 -3.795898,-5.973511c-0.499268,-0.019897 -0.97876,-0.379517 -1.018799,-0.998901c-0.060059,-0.838989 0.579346,-0.958984 1.178711,-1.138672c1.738037,-0.479492 3.496094,0 5.234375,-0.040039c7.012207,-0.099854 14.064453,0.579346 21.036865,-0.399536c2.617188,-0.359619 3.056641,0.699219 2.557373,2.936768c-0.319824,1.39856 -0.379639,2.856934 -0.619385,4.275391c-0.119873,0.699219 -0.379639,1.518311 -1.19873,1.638184c-0.859131,0.139893 -1.298584,-0.559326 -1.498291,-1.278564c-0.958984,-3.656006 -3.696045,-4.275391 -6.952393,-4.275391c-7.05249,0 -7.05249,-0.059937 -7.072266,6.932495c0,2.577148 0.019775,5.174316 -0.02002,7.751465c-0.02002,1.518433 0.699219,2.557251 2.157715,2.417358c3.855713,-0.379517 8.01123,1.55835 11.567139,-1.518311c0.839111,-0.719238 1.917969,-0.399536 1.818115,0.998901c-0.139893,2.257568 -0.439453,4.515137 -0.699219,6.752686c-0.079834,0.699219 -0.499512,1.158691 -1.19873,1.218628c-0.759033,0.079956 -0.938965,-0.579346 -1.278564,-1.098755c-1.758057,-2.677124 -8.610596,-4.335327 -11.407471,-2.836914c-1.058838,0.559326 -0.938965,1.518311 -0.938965,2.417358c-0.040039,2.457275 -0.02002,4.93457 -0.02002,7.411865z" class="st0"/>
   <path id="svg_29" d="m313.306519,280.274231c0,-3.196533 -0.059814,-6.412964 0.02002,-9.609497c0.040039,-1.69812 -0.459473,-2.796997 -2.257568,-3.07666c-0.799072,-0.119873 -1.837891,-0.059937 -1.658203,-1.298584c0.139893,-0.899048 1.039063,-0.938965 1.758301,-0.938965c3.39624,0 6.8125,0.039917 10.20874,0.079956c0.619385,0 1.398438,0.019897 1.578369,0.699219c0.299561,1.038818 -0.759277,1.018921 -1.338623,1.338501c-0.87915,0.49939 -1.957764,0.759155 -1.937988,2.117676c0.179932,7.332031 -0.499268,14.68396 0.339844,21.976074c0.95874,8.330811 6.592773,10.148926 13.205566,9.509644c6.712646,-0.639404 10.468506,-4.95459 10.788086,-12.086792c0.259766,-5.973511 0.060059,-11.986938 0.099854,-17.960449c0.02002,-2.377441 -1.338379,-3.25647 -3.456055,-3.556152c-0.679443,-0.099854 -1.598389,-0.239746 -1.478516,-1.218628c0.119873,-1.018921 1.058838,-0.779175 1.738037,-0.799194c2.876953,-0.019897 5.773926,0 8.650635,0.040039c0.659424,0.019897 1.578369,-0.299683 1.698242,0.799072c0.099854,0.819092 -0.55957,1.078857 -1.178711,1.158691c-2.797119,0.379639 -2.916992,2.317505 -2.956787,4.555054c-0.099854,6.592896 0.519287,13.225586 -0.699219,19.778442c-1.478516,7.911377 -6.532959,12.086792 -14.644043,12.186768c-5.014648,0.059814 -9.90918,-0.299683 -13.844971,-3.975708c-3.196533,-2.976807 -4.554932,-6.772583 -4.674805,-11.047974c-0.02002,-2.876831 0.039795,-5.773682 0.039795,-8.670532z" class="st0"/>
   <path id="svg_30" d="m413.057739,303.049377c-3.296387,0 -6.612793,0.02002 -9.90918,-0.02002c-0.579346,0 -1.378418,0.199829 -1.638184,-0.519409c-0.259766,-0.779175 0.459473,-1.098755 1.038818,-1.218628c2.337402,-0.439575 2.41748,-2.137695 2.41748,-3.995728c-0.02002,-8.570557 -0.040039,-17.161255 0,-25.731812c0,-1.937988 -0.3396,-3.496216 -2.497314,-4.035645c-0.739258,-0.17981 -1.518311,-0.459473 -1.23877,-1.418457c0.279785,-0.918945 1.19873,-0.639282 1.858154,-0.639282c4.754639,-0.039917 9.509521,-0.02002 14.264404,-0.039917c1.138672,0 2.277344,-0.060059 3.39624,-0.099976c1.278564,-0.019897 2.996826,-0.899048 3.595947,0.699219c0.699463,1.858032 0.100098,3.955688 -0.759033,5.693848c-0.459473,0.938965 -1.458496,0.479492 -2.077637,-0.579346c-1.53833,-2.637085 -6.812744,-4.115601 -9.369873,-2.817017c-0.799072,0.419556 -0.839111,1.078857 -0.839111,1.818115c0,3.096558 0,6.193237 0,9.309814c0,1.638184 0.938965,2.557129 2.477295,2.577148c2.656982,0.040039 5.354248,0.519409 7.851318,-1.038818c1.838135,-1.158691 2.4375,-0.399536 2.077881,1.558228c-0.179932,0.919067 -0.31958,1.838013 -0.419678,2.75708c-0.119629,0.998901 0.080078,2.297485 -1.178711,2.597168c-1.478271,0.359619 -0.998779,-1.238647 -1.498291,-1.87793c-1.038818,-1.318604 -5.693848,-2.257568 -7.891357,-1.478516c-2.097656,0.739258 -1.298584,2.557251 -1.338623,3.995728c-0.099854,3.196533 -0.02002,6.412964 -0.079834,9.609497c-0.040039,1.838013 0.759277,2.577148 2.597168,2.617188c3.516113,0.079834 6.8125,-0.279785 9.309814,-3.156616c0.539551,-0.619263 1.118896,-1.358521 2.077637,-0.918945c0.839111,0.399536 0.499512,1.278564 0.479492,1.957886c-0.119629,4.135376 -0.459473,4.435059 -4.634766,4.455078c-1.338623,0 -2.697266,0.019897 -4.035645,0.019897s-2.697021,0 -4.035645,0c0,-0.039917 0,-0.059814 0,-0.079834z" class="st0"/>
   <path id="svg_31" d="m314.844849,94.796692c-9.050049,-8.410828 -15.343262,-18.359985 -17.301025,-30.806396c-1.018799,-6.512878 -0.299805,-12.746094 2.437256,-18.699585c1.838135,-3.995667 4.395264,-7.451843 8.690674,-9.150024c5.993408,-2.357422 10.648193,1.358521 13.245361,5.63385s0.619385,10.76825 -3.775879,13.685059c-1.658203,1.098816 -3.336182,1.078857 -4.674805,-0.579346c-0.559326,-0.69928 -1.318604,-1.53833 -0.958984,-2.497314c0.399658,-1.078796 1.438477,-0.319641 2.177734,-0.379578c2.617188,-0.17981 4.195313,-1.857971 4.335205,-4.694885c0.159912,-3.056641 -1.87793,-5.79364 -4.535156,-6.113281c-5.333984,-0.659302 -9.549561,2.297485 -11.047852,8.590576c-2.037842,8.55072 -1.957764,17.181274 0.739258,25.671997c2.297363,7.132202 6.412842,13.265503 10.668213,19.338928z" class="st1"/>
   <path id="svg_32" d="m513.308472,51.743652c-1.418457,4.994568 -3.696045,5.693787 -7.152344,2.617126c-3.775879,-3.356323 -4.554932,-9.849243 -1.638184,-13.784912c3.835938,-5.154419 9.389648,-6.572815 14.304443,-3.416321c6.712646,4.315308 8.910156,11.127869 9.429688,18.539795c0.938965,13.245544 -4.455139,24.273499 -12.566406,34.262634c-1.638184,2.017761 -3.116455,4.235352 -6.013428,5.893555c2.41748,-3.416321 4.594971,-6.233215 6.49292,-9.229919c6.83252,-10.848145 9.050293,-22.575378 6.473145,-35.181641c-0.519531,-2.577148 -1.698242,-4.874695 -3.076904,-7.052307c-1.897949,-3.036682 -7.651611,-4.43512 -10.52832,-2.497253c-2.297607,1.53833 -2.7771,3.855774 -2.157715,6.552856c0.819092,3.536133 3.256592,3.855774 6.433105,3.296387z" class="st1"/>
   <path id="svg_33" d="m531.668335,303.089294c-3.516113,0 -7.012512,0.02002 -10.528564,-0.02002c-0.679199,0 -1.578369,0.239868 -1.897949,-0.619263c-0.359619,-0.978882 0.55957,-1.318604 1.19873,-1.438354c1.818115,-0.339722 1.85791,-1.578369 1.85791,-3.016724c-0.02002,-9.090088 -0.059814,-18.160156 0.02002,-27.250244c0.02002,-1.897949 -0.679199,-2.876953 -2.457275,-3.296509c-0.559326,-0.119873 -1.338623,-0.239746 -1.298584,-1.058838c0.060059,-1.018921 0.918945,-0.958862 1.638184,-0.958862c3.396179,-0.040039 6.8125,-0.02002 10.208984,-0.079956c0.779053,-0.02002 1.538086,0 1.677979,0.918945c0.139893,0.819214 -0.63916,1.018921 -1.198486,1.158813c-1.917969,0.459473 -2.197754,1.758057 -2.177734,3.516113c0.059814,8.770386 0.099854,17.540894 -0.02002,26.331299c-0.040039,2.577148 0.958984,3.516113 3.456299,3.476196c2.277344,-0.039917 4.534912,-0.059937 6.772461,-0.479492c1.858154,-0.3396 3.056885,-1.478394 3.995605,-3.07666c0.339844,-0.579346 0.959229,-1.278564 1.758301,-0.899048c0.599365,0.279663 0.499512,1.05896 0.519287,1.678223c0.060059,4.834717 -0.259766,5.154297 -5.154297,5.134399c-2.796875,-0.02002 -5.573975,-0.02002 -8.37085,-0.02002z" class="st0"/>
   <path id="svg_34" d="m447.260376,41.215149c3.156494,0.319641 6.712646,-0.499451 7.511963,2.637085c0.699219,2.697083 -2.337646,4.435181 -4.415283,5.753723c-7.251953,4.575012 -15.283447,7.092285 -23.833984,7.571777c-2.217529,0.119873 -5.234375,0.15979 -6.253174,-2.297485c-1.018799,-2.437378 1.498291,-3.815857 3.156494,-5.034546c7.212158,-5.374084 15.583008,-7.611694 23.833984,-8.630554z" class="st1"/>
   <path id="svg_35" d="m377.636353,41.275085c8.93042,0.599365 17.141357,3.296387 24.533203,8.390808c0.159912,0.119873 0.3396,0.239746 0.479492,0.399597c1.23877,1.318542 3.176514,2.537231 2.4375,4.575012c-0.719238,1.977844 -2.956787,2.157654 -4.794922,2.157654c-10.20874,-0.059937 -19.45874,-3.036682 -27.609863,-9.309875c-1.418457,-1.078796 -2.577148,-2.257507 -1.957764,-4.115479c0.63916,-1.897949 2.457275,-1.977844 4.115479,-2.097717c0.938965,-0.059937 1.87793,0 2.796875,0z" class="st1"/>
   <path id="svg_36" d="m439.548706,294.358826c-0.898926,-1.518311 -0.839111,-3.156494 -0.878906,-4.754761c-0.040039,-1.658203 1.038818,-2.936768 2.936768,-2.876831c1.058838,0.019897 3.116699,1.118774 2.876953,-1.318604c1.498291,-0.15979 2.916748,-0.399536 4.295166,-0.759155c-0.63916,1.118774 -2.317383,1.778076 -1.118652,3.596069c-0.519531,-0.059937 -1.23877,-0.119873 -1.758301,-0.15979c-5.513672,-0.299683 -5.813477,-0.559448 -6.272949,4.894653c-0.02002,0.359619 0.059814,1.018799 -0.080078,1.378418z" class="st0"/>
   <path id="svg_37" d="m442.365845,303.069397c0.219727,-1.418457 -1.21875,-1.258667 -1.518555,-2.257568c0.699463,0 1.498535,-0.039917 2.197754,0c1.038818,0.059937 2.417236,0.299683 2.337402,1.37854c-0.119873,1.618164 -2.037842,0.839111 -3.016602,0.879028z" class="st0"/>
   <path id="svg_38" d="m440.148071,300.472229c-0.379395,0.299683 -0.819092,-0.039917 -0.918945,-0.459473c-0.039795,-0.159912 0.31958,-0.359619 0.459473,-0.559448c0.179932,0.399536 0.3396,0.599365 0.459473,1.018921z" class="st0"/>
   <path id="svg_39" d="m313.086792,99.511536c0.279785,0.239746 0.579346,0.479492 0.859131,0.719177c-0.119873,0.119873 -0.239746,0.219788 -0.359619,0.339661c-0.239746,-0.299683 -0.459473,-0.579346 -0.699219,-0.879028c0,0 0.199707,-0.17981 0.199707,-0.17981z" class="st1"/>
   <path id="svg_40" d="m512.868774,99.711304c-0.239746,0.279724 -0.459473,0.559387 -0.699219,0.85907c-0.119873,-0.119873 -0.239746,-0.239746 -0.359619,-0.339661c0.279785,-0.239685 0.559326,-0.479431 0.839111,-0.719177c0.02002,-0.019958 0.219727,0.199768 0.219727,0.199768z" class="st1"/>
   <path id="svg_41" d="m286.156372,353.754089c0.019775,-0.059937 0.059814,-0.139893 0.079834,-0.139893c0.079834,0 0.159668,0.039917 0.219727,0.059937c-0.02002,0.059937 -0.060059,0.139893 -0.079834,0.15979c-0.060059,-0.019897 -0.139893,-0.059814 -0.219727,-0.079834z" class="st1"/>
   <path id="svg_42" d="m258.546265,353.634216c0,0.059937 0,0.15979 -0.02002,0.179688c-0.059814,0.040039 -0.179688,0.079956 -0.239502,0.040039c-0.259766,-0.119873 -0.259766,-0.239746 0.039795,-0.299683c0.060059,-0.02002 0.159912,0.039917 0.219727,0.079956z" class="st1"/>
   <path id="svg_43" d="m447.859741,288.884827c0.219727,0.039917 0.3396,0.17981 0.359619,0.419556c-0.119873,-0.139893 -0.239746,-0.279663 -0.359619,-0.419556z" class="st0"/>
   <path id="svg_44" d="m449.038452,284.529602c0.499512,-0.359619 0.898926,-0.599365 1.338623,-0.879028c0.039795,0.998901 -0.739258,0.819092 -1.338623,0.879028z" class="st0"/>
   <path id="svg_45" d="m440.84729,285.168884c0.399658,0.059937 0.819336,0.099854 1.21875,0.15979c-0.459473,0.379639 -0.878906,0.479492 -1.21875,-0.15979z" class="st0"/>
   <path id="svg_46" d="m440.287964,284.729431c0.139893,0.119873 0.279785,0.259644 0.439697,0.379517c-0.159912,-0.139893 -0.299805,-0.259644 -0.439697,-0.379517z" class="st1"/>
  </g>
 </g>
</svg>