<?xml version="1.0" encoding="utf-8"?>
<!-- Generator: Adobe Illustrator 19.0.0, SVG Export Plug-In . SVG Version: 6.00 Build 0)  -->
<svg version="1.1" id="Layer_1" xmlns="http://www.w3.org/2000/svg" xmlns:xlink="http://www.w3.org/1999/xlink" x="0px" y="0px"
	 viewBox="0 0 8503.9 5102.4" style="enable-background:new 0 0 8503.9 5102.4;" xml:space="preserve">
<style type="text/css">
	.st0{fill:#C59835;}
	.st1{fill:#B1B3B2;}
	.st2{fill:#FEFEFD;}
</style>
<g>
	<path class="st0" d="M2035.8,1459.2c50.2,0,100.4,0,150.6-0.1c7.9,0,16-1,15.2,11.4c-0.4,7.1-2.7,10.4-10.1,10.2
		c-6.7-0.2-13.4-0.1-19.9,2.4c-10.1,3.9-16,9.9-15.9,21.8c0.3,47.1-0.1,94.2-0.1,141.3c0,3.8-1.6,9.1,3.1,11.1
		c4.6,2,7.3-2.6,10.2-5.3c48.8-46.6,97.5-93.3,146.2-140.1c4.5-4.3,9-8.7,12.5-13.7c4.1-6,8.1-12.4-1.1-18.4
		c-5.6-3.6-4.5-10.2-3-15.6c1.9-6.9,8.2-4.9,13.1-4.9c37.3-0.1,74.5-0.3,111.8,0c6,0,14.1-2.9,15.4,7.9c1.2,9.8-2.8,13.3-12.4,15.1
		c-50.9,9.8-88.8,41.5-125.3,75.6c-31.9,29.7-64.1,59.2-96.9,88c-9.8,8.6-11,14.1-0.9,23.3c53.5,49.1,106.9,98.4,159.6,148.4
		c21.5,20.4,43.5,39.3,69.9,53c19.5,10.1,39.9,16.5,61.7,17.9c7.4,0.5,12.6,1.1,12.7,11c0.1,10.5-5.7,10.4-12.8,10.2
		c-32.5-1-65.1,1.2-97.6-3.5c-44.4-6.5-80.5-27.7-110.9-59.7c-47.2-49.6-94.3-99.2-141.5-148.8c-2.7-2.9-5.1-7.4-10-5.9
		c-5.3,1.6-3.6,6.8-3.6,10.6c-0.1,54.9,0.2,109.7-0.2,164.6c-0.1,10.4,4.7,15,13.3,17.9c9.5,3.3,19.2,4.1,29.1,3.7
		c8.3-0.3,12.1,2.5,11.8,11.6c-0.2,8.9-4.8,10.1-11.8,10.1c-49.2-0.3-98.3-0.4-147.5-0.8c-3.8,0-10.7,2.4-9.9-5.6
		c0.6-5.7-0.9-13.3,7.9-14.8c4.1-0.7,8.3-0.5,12.4-1.1c14-2,21.6-8.2,21.5-24.4c-0.5-116.4-0.2-232.9-0.1-349.4
		c0-25.8-5.7-32.2-31.2-33.6c-5.1-0.3-10.3,0.1-15.5,0.2C2035.8,1473.7,2035.8,1466.4,2035.8,1459.2z"/>
	<path class="st0" d="M6011.4,1480.9c-5.7-0.1-11.4-0.6-17-0.1c-28.4,2.6-37.5,12-37.5,40.3c-0.1,119.5,0,239.1,0,358.6
		c0,6.7-0.1,13.5-0.1,20.2c0,7-1.1,13-8.9,16.3c-7.9,3.4-12.4-0.1-17.6-5.1c-30.2-29.4-60.5-58.7-90.8-88
		c-60.4-58.4-120.8-116.7-181.4-175c-24.6-23.7-49.4-47.1-74.3-70.5c-3.2-3-6.5-8.3-11.5-6.2c-5.9,2.5-3.8,8.8-3.8,13.8
		c-0.1,89.5-0.1,178.9-0.2,268.4c0,23.1,5.3,29.1,28.5,32.1c8.2,1.1,16.4,2.6,24.6,2.9c8.3,0.3,10.4,4.4,10.5,11.8
		c0.1,8.6-4.8,10.4-11.9,10.4c-42.9-0.4-85.8-0.7-128.8-1.2c-5.9-0.1-12.8,1.6-13-8.5c-0.2-8.9,4.1-11.9,12-12.4
		c4.6-0.3,9.2-1.1,13.7-2.2c19.6-4.6,23.8-9.8,23.9-29.8c0-116.5,0-232.9,0-349.4c0-8.8-0.4-17.6,0.3-26.4c0.6-7.2-4.5-18.2,5-20.5
		c10.7-2.6,22.1-4.1,32.7,6.5c81.2,80.5,163.3,160.2,245,240.2c31.3,30.6,62.4,61.3,93.8,91.8c4.2,4,7.8,12.1,14.5,9.2
		c5.5-2.5,2.5-10.3,2.5-15.7c0.1-89-0.8-178.1,0.4-267.1c0.5-33.7-11.4-37.9-40.9-44.3c-4.5-1-9.3-0.7-13.9-0.5
		c-8.3,0.5-13.7-0.6-13.5-11.3c0.2-10.3,6.2-10.1,13.3-10.1c48.1,0.1,96.3,0,144.4,0.1C6011.4,1466.4,6011.4,1473.7,6011.4,1480.9z"
		/>
	<path class="st1" d="M5088.9,2872.4c-63.3-92.7-146.5-164-240.5-223.7c-56.3-35.7-114.4-67.7-175.7-94.1c-2.6-1.1-6.2-1.5-7.4-7.1
		c18.5,6.9,36.5,12.5,53.5,20.2c66.3,30.1,131.5,62,191.8,103.4c61.2,42,117.8,89,162.9,148.3c12.3,16.2,25.9,32.2,30.8,52.9
		c-2.1,0-4.1,0-6.2,0c-2.1-4.8-4.1-3.9-6.2,0C5091,2872.4,5090,2872.4,5088.9,2872.4z"/>
	<path class="st1" d="M2955.2,2872.4c9.3-28,28.3-49.9,46.4-72.2c39.8-48.9,88.7-87.8,139.9-123.9c73.9-52,154.5-91.2,238.7-123.4
		c3.1-1.2,6.2-4.3,11.1-1.6c-12.1,8.9-26.1,12.8-38.8,19c-98.1,47.2-190.2,103.6-271.5,176.7c-36.6,32.9-68.7,69.5-98.3,108.6
		c-3.7,4.8-7.8,9.9-5.8,16.8c-3.1,0-6.2,0-9.3,0c-0.7-0.7-1.5-1.4-2.2-2.1c-0.3,0.7-0.6,1.4-0.9,2.1
		C2961.4,2872.4,2958.3,2872.4,2955.2,2872.4z"/>
	<path class="st1" d="M3921.1,884.6c-0.8,5.2,3.7,5,6.7,6.8c41.3,24.8,73.8,57.4,91,103.6c2.5,6.6,2.1,12.5-2.4,17.3
		c-4.9,5.2-11.1,1.7-15.9-0.4c-26.8-11.6-47-31.5-65.2-53.5c-9.5-11.5-18.2-23.6-25.3-37c-6.3-12-9.4-23.7-4.3-36.8
		C3910.7,884.6,3915.9,884.6,3921.1,884.6z"/>
	<path class="st1" d="M4154,884.6c14.5,18.4,3.1,34.9-6,49.4c-17.6,28-40.2,52.2-68.3,70.3c-9.6,6.2-21.4,16.4-32,7.4
		c-11.4-9.7-0.8-22.4,4-32.2c16.4-32.9,42-57.9,70.9-80c8.7-6.7,20.6-6.7,28.3-14.9C4152,884.6,4153,884.6,4154,884.6z"/>
	<path class="st2" d="M5092,2872.4c2.1-3.9,4.1-4.8,6.2,0C5096.2,2872.4,5094.1,2872.4,5092,2872.4z"/>
	<path class="st2" d="M2964.5,2872.4c0.3-0.7,0.6-1.4,0.9-2.1c0.7,0.7,1.5,1.4,2.2,2.1C2966.5,2872.4,2965.5,2872.4,2964.5,2872.4z"
		/>
	<path class="st1" d="M2837.2,2462.6c-210.7,0-421.3,0.1-632-0.2c-13.4,0-21.2,3.6-28,16.2c-14.3,26.6-37.5,46.4-58.2,67.9
		c-5.3,5.5-10.3,3.1-14.8-1.3c-24-23.7-44.5-50.1-61.5-79.1c-8.6-14.7,5.3-36.9,24.2-37.6c32-1.2,64.2-0.4,96.3-0.3
		c5.3,0,11.1,1.9,13.5,6.5c7.4,13.7,19.6,12.4,32.1,12.4c417.2-0.1,834.3-0.1,1251.5-0.1c25.9,0,50.5,3.8,69.5,23.8
		c4.3,4.5,8.8,4.1,14.1,1.9c53.4-22.6,109.5-30.2,166.8-25.5c53.8,4.4,103.5,22.9,148.6,52.9c64.2,42.6,110.4,100.3,141.9,170.1
		c6.8,15,11,31,16.7,46.5c1.3,3.7,1.9,9.1,6.9,9.2c6.1,0.2,4.6-5.9,5.6-9.4c19.7-68.1,55.3-126.4,107.9-174
		c56.9-51.5,123-84.6,199.2-95.9c48.9-7.2,96.7-4.5,142.4,16.5c2.4,1.1,5.2,1.6,7,3.3c17.1,16.2,31.6,11.3,48.6-2.1
		c20.8-16.3,47.2-17.2,72.6-17.3c249.5-0.3,499-0.1,748.4-0.2c163,0,326.1-0.1,489.1,0.1c8.6,0,15.7-0.3,21.3-8.7
		c5.5-8.2,15-10.3,24.7-10.3c27.9,0,55.9-0.3,83.8,0.1c25.3,0.3,38.5,24.5,24.4,45.8c-17.7,26.8-38.9,50.8-62.2,73
		c-6.6,6.2-10.1,3.8-15.2-1.3c-21.9-22.1-40-47.2-57.2-73c-5-7.5-10.1-10.1-18.8-10.1c-417.2,0.2-834.3,0.2-1251.5,0.2
		c-21.3,0-40.5,6.4-58.3,17.8c-5.7,3.7-9.7,7.8-1.6,12.5c33.4,19.3,45,52,49.7,86.6c4.1,30,3.1,60.8-7.5,90.3
		c-6.4,17.9-15.4,33.6-29.2,46.8c-18.6,17.9-50.5,18.6-68.6,0.6c-22.6-22.5-32.9-50.4-37.1-81.5c-4.2-31.3-1.5-61.4,9.4-91.1
		c7-19,17.8-35,33.4-47.6c7-5.6,9-8.9-0.4-14.1c-23.9-13.2-49.1-22-76.3-23.5c-131.4-7-233.2,48.7-310.5,151.2
		c-36.6,48.5-55.7,105.2-62.3,166.1c-1.8,16.5-2.1,32.9-2.5,49.4c-0.1,5.9,1.7,14.4-7.2,14.5c-9.4,0.1-8.9-8.6-8.6-15.2
		c2-41.4-6-81.2-19.5-120.1c-26.4-75.8-70.5-138.7-136-185.5c-50.4-36-106.4-55.5-168.7-58.4c-44.7-2.1-87.2,6-129,20
		c-6.3,2.1-13.7,4.9-3,11.3c33.1,19.6,43.2,52.4,49.3,87c6.6,37.6,0.8,73.6-16.2,108c-14.9,30.1-44.2,47.2-69.7,38.4
		c-18-6.2-29.7-20.2-38.9-36.1c-30.1-52.1-26.6-139.5,14-183.5c4.3-4.7,8.7-8.6,14.4-11.1c11.9-5.2,9.9-11.3,1.4-17.9
		c-14-10.9-30.1-14.9-47.8-14.9C3257.5,2462.6,3047.3,2462.6,2837.2,2462.6z"/>
	<path class="st1" d="M4947.3,1351.2c162.5,0,325-0.1,487.6,0.2c9.9,0,16.3-2.7,21.7-11.2c9.2-14.4,21.9-26,33.8-38.3
		c7.4-7.6,13.5-7.6,21-1c16,14,31.5,28.5,43.5,46.1c8.1,11.8,2.9,26.6-11.2,28.8c-26.6,4.2-56.8,9.3-79.6-0.7
		c-27.9-12.1-54.2-9.1-81.1-9.1c-299.7-0.6-599.4-0.3-899.1-0.5c-27.7,0-54.8-2.9-76.2-23.8c-3.9-3.8-7.4-3.6-12.3-0.5
		c-58,36.9-119.2,33-180.2,10.8c-70.9-25.8-126.5-70.9-162.5-138.4c-8.8-16.4-15.5-33.7-21.6-51.3c-1.6-4.6-0.2-12.5-6.5-12.6
		c-7.2-0.1-6.2,8.5-7.8,13.4c-15.6,48.7-41.7,91.7-78.6,126.3c-76.1,71.4-164.8,95.2-266,62.2c-15-4.9-28-10.9-43.4,3.5
		c-10.2,9.5-27.5,10.4-42.8,10.4c-323.5,0-647,0-970.5-0.1c-8.8,0-17.5-1-23.9,7.3c-1.7,2.2-5.3,4.1-8.1,4.2
		c-26.3,1-52.9,3.3-78.9-0.9c-18.5-3-21.8-16.5-10.6-31.9c11.3-15.5,23.8-29.8,37.6-43.1c6.9-6.6,13.4-7,20.2-0.2
		c13.8,13.9,29.7,25.8,40.7,42.4c4.7,7.2,10,11.2,19.3,8.4c4.8-1.4,10.3-0.4,15.5-0.4c322.5,0,644.9,0,967.4,0
		c10.4,0,20.6,0.1,29.8-6.3c7.4-5.1,10.3-8.9,1.2-16c-42.3-33.4-44.1-120.4-14.9-161.7c23.1-32.7,58.7-30.3,77.7,5.3
		c27.4,51.4,20.7,110.8-17.6,155.4c-5,5.8-5.9,8.8,2.8,11.7c59.7,19.5,118.5,20.4,176.7-5.6c94.7-42.4,145.1-118.6,165.6-217.3
		c3-14.6,2.7-29.8,4.2-44.7c0.5-4.6-2.5-12.5,4.9-12.4c7.4,0,7,8.1,6.7,13.4c-1.6,28.2,2.8,55.5,10.1,82.5
		c28.4,104.6,130.8,191.7,240.2,198.9c30.3,2,59.8-0.2,88.1-11.5c10.1-4,15.8-7.7,4.7-20.2c-27.2-30.5-32.3-68.2-26.6-107.6
		c2.8-19.1,9.4-37,20.8-52.9c18.8-26,48.3-27.3,67.5-1.9c21.6,28.7,27.3,62,22.8,97c-3.5,27.7-12.2,53.4-34.9,72.2
		c-6.4,5.3-3.9,9.8,2.4,13.1c13.2,6.9,27.3,8.5,42.1,8.5C4628.5,1351.1,4787.9,1351.2,4947.3,1351.2z"/>
	<path class="st0" d="M2677.3,1459.6c44.3-0.4,88.7-8.5,132.8,2.2c106.9,25.9,112,132,63.2,192.7c-13,16.2-27.9,30.3-44.5,42.8
		c-6.4,4.8-9.3,8.5-2.2,15.8c35.4,36,66.2,76.2,103.2,110.7c28.3,26.4,58.2,50.5,95.2,64.2c8.1,3,16.1,3.2,24.2,4
		c6.6,0.7,8.5,4.7,8.5,10.6c0.1,5.8-3.5,7-8,6.9c-36.2-0.8-72.5,2.8-108.4-3.1c-35.8-5.9-64.2-24.1-86.4-52.7
		c-30.4-39.1-62.3-76.9-90.8-117.5c-6.3-9-14.6-13.9-26.2-13.5c-17.1,0.6-34.2,0.3-51.2,0.2c-11.9-0.1-18.1,4.3-17.9,17.4
		c0.5,40.4,0.8,80.7-0.1,121.1c-0.3,13.1,5.6,19,16.6,21.9c12.5,3.3,25.2,5.7,38.2,5.3c8.2-0.2,13.9,1.7,13.9,11.9
		c0,11-7.4,9.1-13.9,9.1c-50.1,0.4-100.3,0.8-150.4,0.9c-5.6,0-13,1.4-13.7-8.3c-0.6-8.7,2.1-13.2,11.5-14.4
		c15.9-2.1,21.5-11.3,21.4-27.9c-0.6-115.4-0.3-230.8-0.2-346.2c0-23.9-4.1-29.6-27.5-32.5c-9.3-1.2-11.1-5.4-10.9-12.9
		c0.2-9.4,7-8.7,13.3-8.7C2603.8,1459.6,2640.5,1459.6,2677.3,1459.6z M2669,1588.1c0,27.4,0.7,54.8-0.3,82.2
		c-0.6,15.5,5.9,22.6,20.3,25.5c20,4.1,40.1,4.7,60.1,2.8c19-1.8,35.2-9.8,47.9-25.1c30.2-36.4,30.6-77.4,18.9-120
		c-7.9-28.8-24.5-51.3-53.3-62c-26.4-9.8-54.1-5.4-81.3-3.9c-9.2,0.5-12.6,8.6-12.5,18.4C2669.3,1533.3,2669,1560.7,2669,1588.1z"/>
	<path class="st0" d="M4150.9,1750.1c-21.2,0-42.4,0.2-63.7-0.1c-14.3-0.2-23.6,6.5-28.4,19.4c-8.5,22.7-17.2,45.4-24.7,68.5
		c-7,21.4-1.9,37.1,12.9,44.4c3.6,1.8,7.9,3.2,11.8,3c12.3-0.6,10.9,7.8,11.3,15.6c0.4,9.7-6.4,8.8-12.6,8.9
		c-39.3,0.3-78.6,0.6-118,0.5c-4.6,0-11.6,0.9-11.1-7.2c0.4-6.2-2.7-15.5,6.3-17.1c35.7-6.1,50.3-33.1,63.5-61.8
		c52.1-113.5,104.2-227,156.3-340.5c3.4-7.5,6.6-15.2,10.1-22.6c2.8-6,5.1-12.6,14.2-11.6c8.2,0.9,12.9,5,16,12.4
		c11.7,27.5,23.8,54.8,35.8,82.2c39.7,90.8,79.5,181.5,119.1,272.3c5.4,12.3,11,24.5,15.5,37.2c7.4,20.7,23.5,28.8,43.5,31.9
		c4.1,0.6,8.1,1.7,12.1,2.5c7.1,1.3,8.8,6,8.4,12.5c-0.5,7.6-4.8,9.1-11.4,9.1c-43.5-0.1-87,0.1-130.4-0.1c-11.2,0-17-10.1-9-18.2
		c14-14.1,9.5-27.7,3.4-42.6c-10.5-25.8-20.8-51.7-31-77.6c-6.6-16.8-20.9-20.5-36.4-21C4193.4,1749.5,4172.1,1750,4150.9,1750.1
		L4150.9,1750.1z M4158.6,1548.9c-2.8,4.3-5.2,7-6.7,10.2c-21.5,46.2-43.2,92.3-64.1,138.7c-6.7,14.8-0.7,22.4,17.8,22.7
		c35.6,0.5,71.3,0.3,106.9-0.2c15.8-0.2,19.3-5.9,13.2-20.6c-10-23.7-20.2-47.3-30.9-70.8
		C4182.9,1602.7,4173.5,1575.4,4158.6,1548.9z"/>
	<path class="st0" d="M5187.5,1750c-21.2,0-42.4,0.1-63.7,0c-14.7-0.1-24.3,6.5-29.3,20.5c-8,22.9-16.9,45.6-24.7,68.6
		c-8.7,25.8,0.8,41.6,27.7,46.2c9.1,1.6,8.3,7.3,8.7,13.5c0.5,7.9-2.6,11.1-10.7,11c-40.9-0.3-81.7-0.2-122.6-0.3
		c-4.5,0-8.5-0.7-8.1-6.6c0.4-6.4-2-15.3,6.8-16.9c35.2-6.8,49.3-33.5,62.4-62.5c53.4-117.5,107.3-234.6,161.1-351.9
		c1.9-4.2,4.2-8.3,6.1-12.5c2.4-5.3,5-9.8,12.3-9.4c7.4,0.4,12.6,2.6,15.7,9.9c11.2,26.1,23,51.9,34.4,77.9
		c21.9,50.1,43.6,100.2,65.4,150.3c23.1,53,47,105.7,69,159.2c9.7,23.5,24.3,37,49.9,39.4c7.6,0.7,18.7,0,16.7,14.4
		c-0.9,6.6-2.8,8.9-9.3,8.9c-44.5-0.1-89,0.2-133.5,0c-9.5,0-14-11.2-6.2-18.9c12.2-12.1,9-24.1,4-37
		c-10.4-26.5-21.1-52.8-31.4-79.3c-6.1-15.7-17.3-23.9-34.2-24c-22.3-0.1-44.5,0-66.8,0C5187.5,1750.3,5187.5,1750.1,5187.5,1750z
		 M5194.2,1720.3L5194.2,1720.3c17,0.1,34.1,0.3,51.1,0c19.2-0.3,22.8-5.2,15.5-22.4c-20-46.9-40.5-93.7-60.9-140.5
		c-1.2-2.7-1.8-6.8-5.4-6.8c-4.4-0.1-5.1,4.6-6.4,7.6c-9.1,19.6-17.7,39.5-26.8,59.1c-11.9,25.7-24.3,51.2-35.9,77
		c-8,17.8-3.2,25.4,16.1,25.8C5159,1720.7,5176.6,1720.3,5194.2,1720.3z"/>
	<path class="st0" d="M3827,1684.2c0,53.8,0,107.7,0,161.5c0,32.9,5.9,39.5,38.3,42.8c2.6,0.3,5.2,0.1,7.7,0.7
		c6.7,1.6,6.4,7.1,6.6,12.3c0.2,6.1-3,8.1-8.7,8.1c-51.7,0.1-103.5,0.2-155.2,0.5c-8.1,0-10.7-4.3-10.8-11.7
		c-0.1-7.7,4.5-8.9,10.9-9.9c34.2-5.3,36.2-9.3,36.1-44.4c-0.4-106.1-0.2-212.2,0.6-318.3c0.3-35.4-1.2-38.4-35.9-38.4
		c-23.8,0-47.6,0.9-71.4,1.4c-24.2,0.5-35.4,18.8-47.6,35.4c-3.9,5.3-7.2,10-14.7,9c-9.8-1.2-16.5-3.5-12.2-16.2
		c5.5-16.1,10-32.6,13.7-49.2c2.1-9.4,5.6-12.5,15.5-11.8c100.3,6.8,200.7,1.8,301,3.4c29,0.4,58-0.2,86.8-3.7
		c10-1.2,14.2,1.1,13.8,11.9c-0.6,19.6-0.2,39.3-0.1,59c0,6.2-2.5,9.7-9.1,9.9c-5.2,0.1-10.4,1-12.3-6.1c-8.2-31.4-32.8-39-60.6-40
		c-24.8-1-49.7,0-74.5-0.1c-12.6,0-18.6,4.7-18.5,18.5C3827.2,1567.2,3826.9,1625.7,3827,1684.2
		C3826.9,1684.2,3827,1684.2,3827,1684.2z"/>
	<path class="st0" d="M3434.2,1450.1c32.6-2.2,60.8,5.1,89.3,9.7c10.5,1.7,16.3,6.1,14.9,18.4c-1.9,17.4-2.1,35.1-3,52.6
		c-0.2,4.9-0.9,9.9-6.8,10.5c-6,0.7-12.6,1.9-16.7-4.7c-0.5-0.8-0.7-1.9-0.9-2.9c-18-66.3-72.8-66.7-125.9-52.5
		c-12.7,3.4-21.8,13.7-27.1,25.9c-13.4,30.6-6.5,63.7,18.4,86.3c23.7,21.5,50.7,38.7,76.9,57c24.9,17.5,49,35.8,68.2,60
		c50.5,63.7,22.3,163-53.4,193.6c-61.2,24.8-120.8,20.5-181.2-1.1c-6.5-2.3-9.4-5.5-8.7-12.3c2.5-24.1,4.9-48.3,7.5-72.4
		c0.8-7.7,5.9-10.1,13.2-9.8c7.4,0.3,11.7,3.6,12.2,11.1c0.3,4.6,0.2,9.3,0.6,14c2.3,31,22.6,53.9,55.6,58.3
		c23.4,3.1,46.1,3.5,68.7-4.5c51.8-18.2,58.3-82.6,31.7-115.3c-22.1-27.2-50.6-46.4-77.3-67.9c-22.8-18.4-46.9-35.1-67.8-55.9
		c-40-39.8-49.7-119,0.8-164.2c23.8-21.3,53.3-30.9,84.8-33.9C3417.9,1449.3,3427.8,1450.1,3434.2,1450.1z"/>
	<path class="st0" d="M4493.6,1685.9c0-56.4,0.1-112.8,0-169.3c0-26.9-7.5-34.8-34.6-36c-7.3-0.3-13.2-0.3-13-10.4
		c0.2-7.8,2.4-11.3,10.6-11.2c47.1,0.3,94.2,0.3,141.3,0.2c7.3,0,11.9,1.9,11.9,10.4c0,7.8-3.1,10.4-11,11.2
		c-26.9,2.6-31.5,8.5-31.5,35.5c0.1,112.3,0,224.7,0,337c0,23.5,1.7,24.9,25.6,26.2c25.9,1.5,51.7,0.8,77.6-0.4
		c30.9-1.4,54.5-14.3,67.6-43.3c3.7-8.3,7.7-15.1,18.3-11.4c10.2,3.6,6,12.2,5.2,18.6c-2.4,18.9-6.2,37.7-8.8,56.6
		c-1.4,10.1-7.7,10.2-15.6,10.2c-83.3-0.2-166.7-0.2-250-0.2c-7.7,0-15.5,0.4-23.2,0.7c-5.9,0.3-10.2-1.3-10.4-8.3
		c-0.1-6,0.4-11.7,7.8-13c3-0.6,6.2-0.6,9.2-1.1c17.9-3.4,23-9.6,23.1-28.1C4493.6,1801.8,4493.6,1743.9,4493.6,1685.9
		L4493.6,1685.9z"/>
	<path class="st0" d="M4866.8,1459.3c22.8,0,45.5,0,68.3,0c6.4,0,12.6-0.1,13.2,9c0.5,8.4-2.6,11.4-11.2,12.7
		c-24,3.6-31.5,13.3-31.5,37.7c0,113.3,0,226.6,0,339.9c0,21.5,5.6,27.5,27.6,29.8c5.1,0.5,10.7-0.1,14.9,3.2
		c4.2,3.3,2.9,8.5,2.5,13c-0.6,6-5.6,5-9.6,5c-47,0.4-94,0.7-141.1,1.2c-7.9,0.1-12.4-2.1-12.5-11.4c-0.1-9.6,4.9-10.7,12.6-11
		c6.6-0.2,13.3-1.7,19.7-3.6c8.2-2.4,12.2-7.6,12.2-17.1c-0.3-119-0.1-238-0.2-356.9c0-18-10.5-27.4-32.8-29.8
		c-8.4-0.9-14.9-0.7-14.3-12.5c0.6-12.4,9-9.1,15.4-9.2c22.2-0.4,44.5-0.1,66.7-0.1C4866.8,1459.2,4866.8,1459.2,4866.8,1459.3z"/>
	<path class="st0" d="M3161.7,1909.6c-23.3,0-46.6,0-69.8,0c-6.3,0-12.2,0.7-12-9.2c0.2-9.1,4.1-11.7,12.2-11.8
		c5.1-0.1,10.3-0.6,15.4-1.7c12.5-2.6,18.8-9,18.8-23.4c-0.5-114.8-0.1-229.7-0.2-344.6c0-24.9-10.1-36.4-34.6-38
		c-9-0.6-12.7-2.7-12.5-12.4c0.2-11,7.2-9.2,13.7-9.2c45.5-0.1,91-0.1,136.6-0.2c7,0,11.8,0.8,11.8,9.9c0,8.5-2.4,11.3-11.2,12.1
		c-22,2.1-30.1,12.3-30.1,35c0,113.8,0,227.6,0,341.5c0,24.3,4.2,28.7,29.4,31c5.4,0.5,12.4-1.5,14.2,6.1
		c2.2,9.3,0.4,16.1-11.8,15.8c-23.3-0.4-46.5-0.1-69.8-0.1C3161.7,1910,3161.7,1909.8,3161.7,1909.6z"/>
	<path class="st1" d="M4807.4,2552.1c31.7,8.1,62.6,17.6,94,25.3c57.8,14.1,115.8,20.6,173.8,2.4c25.5-8,48.7-22.3,75.7-26.5
		c40.1-6.3,80.1,14.8,93.4,50c18,48-13,93.6-64.5,94.7c-30.9,0.6-60-8.8-89.1-17.3c-97-28.5-187.6-71.6-274.9-122.1
		C4812.8,2556.8,4810.2,2554.3,4807.4,2552.1z"/>
	<path class="st1" d="M3251.6,2550c-39.3,28.9-82.2,50.2-125.6,70.3c-63.2,29.3-127.8,55.3-196.2,70.5c-23.1,5.1-45.3,9.5-69.9,3.2
		c-47.3-12.2-66-66.1-34.8-108.6c23.9-32.5,67.1-41.4,112.4-24.8c24.1,8.8,46.2,22.5,72.4,26.1c43.4,5.9,86.4,4.7,129.1-4.9
		c36.2-8.1,72.4-16.3,106.7-31.1C3247.5,2549.9,3249.6,2550.2,3251.6,2550z"/>
	<path class="st0" d="M4166.4,2250.7c0.2,8.6,0.5,17.2,0.7,25.8c-0.7,1-2,2.1-1.9,2.9c0.5,2.1,2.4,2.2,4.2,1.8
		c1.3,0.6,2.6,1.2,4,1.8c1.5,5,10.2,4.2,9.1,11.3c-18,3-36.1-2.4-54.1,0.8c-2.9,0.5-6.4-0.5-7.3-4.3c-0.8-3,1.3-5.2,3.6-6.1
		c9.7-3.8,8.2-12,8.2-19.6c0-43.4-0.1-86.9,0.1-130.3c0-8.7,0.4-16.8-10.8-19c-2.6-0.5-5.1-3-3.6-5.6c1-1.9,4.1-3.7,6.3-3.7
		c33.6,0.8,67.3-4.4,100.6,0.7c17.1,2.6,33,11.2,38.6,29.5c6.7,21.6,0.4,40.7-15,56.9c-16.2,17-16.1,16.8,0.3,34.4
		c15.4,16.6,30.4,33.8,49.4,46.5c31.6,20.9,56.3,13.8,72.2-20.4c21.5-46.2,42.8-92.6,64.4-138.7c2.3-4.8,3.4-12,10.2-12.3
		c8.1-0.4,8.9,7.4,11.3,12.8c21.6,48.5,43.1,97.1,64.7,145.6c4.9,11,10.6,21.4,24.5,23.2c3.1,0.4,6.5,2.4,5.6,6
		c-0.8,3.6-4.7,3.5-7.8,3.5c-16,0-32.1,0.1-48.1-0.1c-6.7-0.1-8.3-2.5-6.6-9.8c4.9-21.2-7.6-37.4-18.1-53.7
		c-2.4-3.7-8.3-4.3-12.9-3.9c-15.5,1.5-31,0.7-46.5-0.4c-8.3-0.6-13.9,2-16.8,10.2c-3.1,8.7-6.9,17.2-10,26
		c-3.3,9.3-3,17.5,8.3,21.1c3.2,1,5.9,2.7,5.3,6.4c-0.8,5.2-5.3,4.1-8.6,4.1c-35.4-0.1-70.8,0.2-106.1-0.8
		c-14.5-0.4-26.2-8.8-35.3-19.9c-13.1-15.8-25.8-32-38.7-48c-0.1-1.1-0.7-1.8-1.8-2.1c-0.7-1.1-1.3-2.3-2-3.4
		c-6-9.1,2.3-12.8,6.6-17.8l1.6-0.8c2.9-0.2,6.5,0.8,6.3-4.2c16-20.5,15.3-42.6,3.1-63.8c-8.9-15.6-25.7-16.4-42.2-16
		c-11.3,0.3-15.5,5.6-15.2,16.5c0.5,16,0,32,0.2,48c0.1,7-2.6,14.5,3.6,20.5c0.7,0.6,1.4,1.3,2.2,1.9l0.7,0.5
		c2.4,2.4,3.8,2.7,6.1,0.8c4,0.1,8.1,0.2,12.1,0.4c1.2,12.2-8.3,8.1-13.6,8c-9.5-0.2-13.4,4.4-13.1,12.7
		C4164.6,2234.8,4161.9,2243.1,4166.4,2250.7z M4435.5,2215.1c6.2,0,12.4-0.2,18.5,0c11.2,0.4,13.7-4.6,9.4-14.3
		c-6.6-15-13.1-30.1-19.8-45.1c-1.4-3.2-2.6-7.3-6.8-7.5c-4.4-0.2-5.6,3.8-7.1,7.1c-4.6,10.3-9.1,20.6-13.7,30.9
		C4403.2,2215.2,4403.2,2215.2,4435.5,2215.1z"/>
	<path class="st1" d="M4532.4,1275.3c26.1-39.7,62.1-68.5,102.9-91.5c31.3-17.6,64.7-30.5,101.6-25.8c28.9,3.7,53.5,16.6,66.4,44.2
		c18,38.6-16.6,83.8-49.6,79.7c-9.6-1.2-16.7-5.9-22.9-11.6c-46-42.5-97-42.2-150.6-17.9c-15.9,7.2-31.2,16-46.7,24
		C4533.4,1276.4,4532.4,1275.3,4532.4,1275.3z"/>
	<path class="st1" d="M3532.4,1276.3c-20.4-8.6-38.8-21.3-59.7-29.2c-49.2-18.5-94.5-16.2-135.3,20.8c-20.5,18.6-40.5,18.5-59.6,2.2
		c-20.2-17.2-27.2-48.3-16.2-68.6c21.2-39.1,64.9-51.2,105.6-41.7c68.7,15.9,120.8,57.8,164.5,111.3c0.9,1.1,1.1,2.8,1.6,4.3
		C3533.4,1275.4,3532.4,1276.3,3532.4,1276.3z"/>
	<path class="st0" d="M5322.1,2299.9c-190.9,0-381.9,0-572.8,0c-2.1,0-4.2,0.2-6.2,0c-4.3-0.4-10.6,1.5-10.2-5.8
		c0.3-5.8,5.8-4.8,9.8-4.8c11.9-0.1,23.8-0.1,35.7-0.1c371.5,0,743,0,1114.5,0.2c6.1,0,17.4-4.7,17.4,5.5c0,8.9-11,4.7-16.9,4.7
		C5702.9,2299.9,5512.5,2299.9,5322.1,2299.9L5322.1,2299.9z"/>
	<path class="st0" d="M2725.3,2289.3c190.5,0,381,0,571.4,0c2.1,0,4.2-0.2,6.2,0c4.3,0.4,11-1.2,10.7,5.5c-0.3,6.2-6.8,5-11.2,5.1
		c-13.5,0.2-26.9,0-40.4,0c-369.6,0-739.1,0-1108.7-0.2c-5.8,0-16.7,4.5-16.7-4.7c0-10.3,11.3-5.4,17.3-5.4
		C2344.4,2289.2,2534.9,2289.2,2725.3,2289.3C2725.3,2289.2,2725.3,2289.3,2725.3,2289.3z"/>
	<path class="st0" d="M3924.4,2185.7c0-15-0.9-30.1,0.3-45c1.1-14.2-2.7-22.6-17.9-24.4c-3.7-0.5-11.4,0.2-10.5-6.1
		c0.8-5.7,7.5-4,11.9-4c15-0.2,30-0.1,45,0c3.1,0,6.7,0.3,7.4,4.1c0.8,4.1-2.7,5.4-5.7,5.8c-14,2-16.2,11-16.1,23.4
		c0.5,47,0.3,94.1,0.1,141.2c0,5.3,2.4,12.2-4.4,15.2c-7.1,3.1-10-4.1-13.8-7.6c-43.2-40.4-86.2-81.1-129.4-121.4
		c-4.2-3.9-8.1-11.6-14.9-8.7c-5.8,2.5-3.5,10.1-3.5,15.5c-0.2,31.5,0.2,63.1-0.1,94.6c-0.1,11.3,5.2,15.7,15.7,16.1
		c4,0.2,9.7,0.4,9.8,5.5c0.2,6.2-6,4.4-9.6,4.5c-14.9,0.3-29.8,0.3-44.6,0c-3.2-0.1-8.1,1.2-8.4-4.2c-0.2-3.8,3.4-4.8,6.4-5.5
		c10.8-2.6,12.5-10.3,12.4-20.1c-0.3-47.1-0.3-94.1-0.1-141.2c0-5.8-2.7-13.6,4.9-16.5c7.1-2.7,11.9,2,17.1,7.2
		c42.8,41.7,86,82.9,129.1,124.2c2.6,2.5,5.4,4.8,8.3,7c7.1,5.6,10.7,4.9,10.5-5.2c-0.3-18.1-0.1-36.2-0.1-54.3
		C3924.2,2185.7,3924.3,2185.7,3924.4,2185.7z"/>
	<path class="st0" d="M3413.8,2231.3c0,7.8,0.5,15.6-0.1,23.3c-1.1,15.3,0,28.4,20.2,28.6c3.7,0,5.5,2.6,5.3,6.2
		c-0.2,4.1-3.3,4.6-6.5,5c-24.3,2.5-48.5-1.1-72.8-0.2c-2.7,0.1-5.3-1.1-5.3-4.3c0-3.5,1.8-6,5.3-6.6c14.3-2.6,14.9-12.7,14.9-24.5
		c-0.4-51.2-0.2-102.4-0.2-153.6c0-13.9,2-29.1-19-29.9c-2.5-0.1-4.9-1.9-5.1-5c-0.3-4.2,2.9-4.8,5.9-5.7c8.7-2.4,17.5,0,26.2-0.2
		c35.1-0.5,70.4,2.9,105.3-2c13.1-1.8,15.3,3.5,12.8,14.7c-1.6,7-1.9,14.3-3.1,21.4c-0.6,3.5-1.9,7.6-6,8.2
		c-4.3,0.7-6.5-2.8-7.5-6.4c-4.8-18.3-18.5-21.4-34.8-21.4c-35.3,0-35.3-0.3-35.4,34.7c0,12.9,0.1,25.9-0.1,38.8
		c-0.1,7.6,3.5,12.8,10.8,12.1c19.3-1.9,40.1,7.8,57.9-7.6c4.2-3.6,9.6-2,9.1,5c-0.7,11.3-2.2,22.6-3.5,33.8c-0.4,3.5-2.5,5.8-6,6.1
		c-3.8,0.4-4.7-2.9-6.4-5.5c-8.8-13.4-43.1-21.7-57.1-14.2c-5.3,2.8-4.7,7.6-4.7,12.1C3413.7,2206.5,3413.8,2218.9,3413.8,2231.3z"
		/>
	<path class="st0" d="M3534.5,2180.2c0-16-0.3-32.1,0.1-48.1c0.2-8.5-2.3-14-11.3-15.4c-4-0.6-9.2-0.3-8.3-6.5
		c0.7-4.5,5.2-4.7,8.8-4.7c17,0,34.1,0.2,51.1,0.4c3.1,0,7,0.1,7.9,3.5c1.5,5.2-3.8,5.1-6.7,6.7c-4.4,2.5-9.8,3.8-9.7,10.6
		c0.9,36.7-2.5,73.5,1.7,110c4.8,41.7,33,50.8,66.1,47.6c33.6-3.2,52.4-24.8,54-60.5c1.3-29.9,0.3-60,0.5-89.9
		c0.1-11.9-6.7-16.3-17.3-17.8c-3.4-0.5-8-1.2-7.4-6.1c0.6-5.1,5.3-3.9,8.7-4c14.4-0.1,28.9,0,43.3,0.2c3.3,0.1,7.9-1.5,8.5,4
		c0.5,4.1-2.8,5.4-5.9,5.8c-14,1.9-14.6,11.6-14.8,22.8c-0.5,33,2.6,66.2-3.5,99c-7.4,39.6-32.7,60.5-73.3,61
		c-25.1,0.3-49.6-1.5-69.3-19.9c-16-14.9-22.8-33.9-23.4-55.3C3534.2,2209.2,3534.5,2194.7,3534.5,2180.2z"/>
	<path class="st0" d="M4033.8,2294.2c-16.5,0-33.1,0.1-49.6-0.1c-2.9,0-6.9,1-8.2-2.6c-1.3-3.9,2.3-5.5,5.2-6.1
		c11.7-2.2,12.1-10.7,12.1-20c-0.1-42.9-0.2-85.9,0-128.8c0-9.7-1.7-17.5-12.5-20.2c-3.7-0.9-7.6-2.3-6.2-7.1c1.4-4.6,6-3.2,9.3-3.2
		c23.8-0.2,47.6-0.1,71.4-0.2c5.7,0,11.4-0.3,17-0.5c6.4-0.1,15-4.5,18,3.5c3.5,9.3,0.5,19.8-3.8,28.5c-2.3,4.7-7.3,2.4-10.4-2.9
		c-7.7-13.2-34.1-20.6-46.9-14.1c-4,2.1-4.2,5.4-4.2,9.1c0,15.5,0,31,0,46.6c0,8.2,4.7,12.8,12.4,12.9c13.3,0.2,26.8,2.6,39.3-5.2
		c9.2-5.8,12.2-2,10.4,7.8c-0.9,4.6-1.6,9.2-2.1,13.8c-0.6,5,0.4,11.5-5.9,13c-7.4,1.8-5-6.2-7.5-9.4c-5.2-6.6-28.5-11.3-39.5-7.4
		c-10.5,3.7-6.5,12.8-6.7,20c-0.5,16-0.1,32.1-0.4,48.1c-0.2,9.2,3.8,12.9,13,13.1c17.6,0.4,34.1-1.4,46.6-15.8
		c2.7-3.1,5.6-6.8,10.4-4.6c4.2,2,2.5,6.4,2.4,9.8c-0.6,20.7-2.3,22.2-23.2,22.3c-6.7,0-13.5,0.1-20.2,0.1s-13.5,0-20.2,0
		C4033.8,2294.4,4033.8,2294.3,4033.8,2294.2z"/>
	<path class="st1" d="M3542.2,1251.8c-45.3-42.1-76.8-91.9-86.6-154.2c-5.1-32.6-1.5-63.8,12.2-93.6c9.2-20,22-37.3,43.5-45.8
		c30-11.8,53.3,6.8,66.3,28.2s3.1,53.9-18.9,68.5c-8.3,5.5-16.7,5.4-23.4-2.9c-2.8-3.5-6.6-7.7-4.8-12.5c2-5.4,7.2-1.6,10.9-1.9
		c13.1-0.9,21-9.3,21.7-23.5c0.8-15.3-9.4-29-22.7-30.6c-26.7-3.3-47.8,11.5-55.3,43c-10.2,42.8-9.8,86,3.7,128.5
		C3500.3,1190.7,3520.9,1221.4,3542.2,1251.8z"/>
	<path class="st1" d="M4535.6,1036.3c-7.1,25-18.5,28.5-35.8,13.1c-18.9-16.8-22.8-49.3-8.2-69c19.2-25.8,47-32.9,71.6-17.1
		c33.6,21.6,44.6,55.7,47.2,92.8c4.7,66.3-22.3,121.5-62.9,171.5c-8.2,10.1-15.6,21.2-30.1,29.5c12.1-17.1,23-31.2,32.5-46.2
		c34.2-54.3,45.3-113,32.4-176.1c-2.6-12.9-8.5-24.4-15.4-35.3c-9.5-15.2-38.3-22.2-52.7-12.5c-11.5,7.7-13.9,19.3-10.8,32.8
		C4507.5,1037.5,4519.7,1039.1,4535.6,1036.3z"/>
	<path class="st0" d="M4627.5,2294.4c-17.6,0-35.1,0.1-52.7-0.1c-3.4,0-7.9,1.2-9.5-3.1c-1.8-4.9,2.8-6.6,6-7.2
		c9.1-1.7,9.3-7.9,9.3-15.1c-0.1-45.5-0.3-90.9,0.1-136.4c0.1-9.5-3.4-14.4-12.3-16.5c-2.8-0.6-6.7-1.2-6.5-5.3
		c0.3-5.1,4.6-4.8,8.2-4.8c17-0.2,34.1-0.1,51.1-0.4c3.9-0.1,7.7,0,8.4,4.6c0.7,4.1-3.2,5.1-6,5.8c-9.6,2.3-11,8.8-10.9,17.6
		c0.3,43.9,0.5,87.8-0.1,131.8c-0.2,12.9,4.8,17.6,17.3,17.4c11.4-0.2,22.7-0.3,33.9-2.4c9.3-1.7,15.3-7.4,20-15.4
		c1.7-2.9,4.8-6.4,8.8-4.5c3,1.4,2.5,5.3,2.6,8.4c0.3,24.2-1.3,25.8-25.8,25.7C4655.4,2294.4,4641.5,2294.4,4627.5,2294.4z"/>
	<path class="st1" d="M4205,983.6c15.8,1.6,33.6-2.5,37.6,13.2c3.5,13.5-11.7,22.2-22.1,28.8c-36.3,22.9-76.5,35.5-119.3,37.9
		c-11.1,0.6-26.2,0.8-31.3-11.5c-5.1-12.2,7.5-19.1,15.8-25.2C4121.8,999.9,4163.7,988.7,4205,983.6z"/>
	<path class="st1" d="M3856.5,983.9c44.7,3,85.8,16.5,122.8,42c0.8,0.6,1.7,1.2,2.4,2c6.2,6.6,15.9,12.7,12.2,22.9
		c-3.6,9.9-14.8,10.8-24,10.8c-51.1-0.3-97.4-15.2-138.2-46.6c-7.1-5.4-12.9-11.3-9.8-20.6c3.2-9.5,12.3-9.9,20.6-10.5
		C3847.2,983.6,3851.9,983.9,3856.5,983.9z"/>
	<path class="st0" d="M4166.4,2250.7c-4.5-7.6-4.2-15.8-4.4-23.8c-0.2-8.3,5.2-14.7,14.7-14.4c5.3,0.1,15.6,5.6,14.4-6.6
		c7.5-0.8,14.6-2,21.5-3.8c-3.2,5.6-11.6,8.9-5.6,18c-2.6-0.3-6.2-0.6-8.8-0.8c-27.6-1.5-29.1-2.8-31.4,24.5
		C4166.7,2245.6,4167.1,2248.9,4166.4,2250.7z"/>
	<path class="st0" d="M4180.5,2294.3c1.1-7.1-6.1-6.3-7.6-11.3c3.5,0,7.5-0.2,11,0c5.2,0.3,12.1,1.5,11.7,6.9
		C4195,2298,4185.4,2294.1,4180.5,2294.3z"/>
	<path class="st0" d="M4169.4,2281.3c-1.9,1.5-4.1-0.2-4.6-2.3c-0.2-0.8,1.6-1.8,2.3-2.8C4168,2278.2,4168.8,2279.2,4169.4,2281.3z"
		/>
	<path class="st1" d="M3533.4,1275.4c1.4,1.2,2.9,2.4,4.3,3.6c-0.6,0.6-1.2,1.1-1.8,1.7c-1.2-1.5-2.3-2.9-3.5-4.4
		C3532.4,1276.3,3533.4,1275.4,3533.4,1275.4z"/>
	<path class="st1" d="M4533.4,1276.4c-1.2,1.4-2.3,2.8-3.5,4.3c-0.6-0.6-1.2-1.2-1.8-1.7c1.4-1.2,2.8-2.4,4.2-3.6
		C4532.4,1275.3,4533.4,1276.4,4533.4,1276.4z"/>
	<path class="st1" d="M3398.6,2548c0.1-0.3,0.3-0.7,0.4-0.7c0.4,0,0.8,0.2,1.1,0.3c-0.1,0.3-0.3,0.7-0.4,0.8
		C3399.4,2548.3,3399,2548.1,3398.6,2548z"/>
	<path class="st1" d="M3260.4,2547.4c0,0.3,0,0.8-0.1,0.9c-0.3,0.2-0.9,0.4-1.2,0.2c-1.3-0.6-1.3-1.2,0.2-1.5
		C3259.6,2546.9,3260.1,2547.2,3260.4,2547.4z"/>
	<path class="st0" d="M4208,2223.3c1.1,0.2,1.7,0.9,1.8,2.1C4209.2,2224.7,4208.6,2224,4208,2223.3z"/>
	<path class="st0" d="M4213.9,2201.5c2.5-1.8,4.5-3,6.7-4.4C4220.8,2202.1,4216.9,2201.2,4213.9,2201.5z"/>
	<path class="st0" d="M4172.9,2204.7c2,0.3,4.1,0.5,6.1,0.8C4176.7,2207.4,4174.6,2207.9,4172.9,2204.7z"/>
	<path class="st1" d="M4170.1,2202.5c0.7,0.6,1.4,1.3,2.2,1.9C4171.5,2203.7,4170.8,2203.1,4170.1,2202.5z"/>
</g>
</svg>
